<svg width="32" height="25" viewBox="0 0 32 25" fill="none" xmlns="http://www.w3.org/2000/svg">
<rect x="0.219048" y="0.719048" width="31.5619" height="23.5619" rx="3.28571" fill="url(#paint0_linear_5358_111327)" stroke="#666666" stroke-width="0.438095"/>
<path fill-rule="evenodd" clip-rule="evenodd" d="M10.5976 16.0568C10.6189 19.0374 13.4671 22.5907 15.4288 23.7392C15.4667 23.7586 15.5 23.7857 15.5265 23.8187C15.5531 23.8516 15.5723 23.8897 15.5829 23.9304C15.5935 23.9711 15.5953 24.0136 15.5882 24.055C15.5811 24.0965 15.5652 24.136 15.5416 24.171C15.5128 24.2182 15.4722 24.2573 15.4237 24.2846C15.3751 24.3119 15.3203 24.3265 15.2644 24.3269C15.2073 24.3271 15.1514 24.3115 15.1029 24.2819C13.0102 23.0675 10.1468 19.5172 9.96402 16.3387H0.319848C0.240012 16.331 0.165932 16.2944 0.112034 16.2359C0.0581355 16.1775 0.0282791 16.1013 0.0282791 16.0224C0.0282791 15.9434 0.0581355 15.8673 0.112034 15.8088C0.165932 15.7503 0.240012 15.7137 0.319848 15.706H10.0249C10.6328 13.6089 10.6328 11.3862 10.0249 9.28907H0.319848C0.235019 9.28907 0.153664 9.25589 0.0936812 9.19685C0.0336981 9.1378 0 9.05772 0 8.97422C0 8.89071 0.0336981 8.81063 0.0936812 8.75158C0.153664 8.69254 0.235019 8.65937 0.319848 8.65937H9.96402C10.1468 5.46888 13.0224 1.93057 15.1029 0.716148C15.1776 0.673601 15.2665 0.662019 15.3499 0.683951C15.4333 0.705882 15.5044 0.75953 15.5476 0.833092C15.5909 0.906655 15.6026 0.994106 15.5804 1.07621C15.5581 1.15831 15.5036 1.22834 15.4288 1.27088C13.4671 2.40434 10.6189 5.96065 10.5976 8.94423C11.2953 11.2654 11.2953 13.7357 10.5976 16.0568ZM20.4971 5.76875C19.4035 3.61877 17.6855 1.93057 16.5554 1.27089C16.4806 1.22834 16.4261 1.15831 16.4039 1.07621C16.3816 0.99411 16.3933 0.906659 16.4366 0.833096C16.4798 0.759533 16.5509 0.705886 16.6343 0.683954C16.7177 0.662023 16.8066 0.673605 16.8813 0.716152C18.3617 1.57074 20.0828 3.53181 21.0698 5.46889C21.0935 5.50598 21.1088 5.54776 21.1143 5.59127C21.1199 5.63477 21.1157 5.67896 21.1021 5.7207C21.0884 5.76244 21.0656 5.80073 21.0353 5.83286C21.005 5.865 20.9679 5.89019 20.9266 5.90668C20.8826 5.93006 20.8334 5.94242 20.7834 5.94266C20.724 5.94272 20.6657 5.92648 20.6152 5.89576C20.5646 5.86504 20.5237 5.82106 20.4971 5.76875ZM31.6804 15.706H21.957C21.3492 13.6089 21.3492 11.3862 21.957 9.28909H31.6804C31.7652 9.28909 31.8465 9.25592 31.9065 9.19687C31.9665 9.13782 32.0002 9.05774 32.0002 8.97424C32.0002 8.89073 31.9665 8.81065 31.9065 8.75161C31.8465 8.69256 31.7652 8.65939 31.6804 8.65939H21.7102C21.6409 8.66017 21.5737 8.68311 21.5188 8.72475C21.4638 8.7664 21.4241 8.82449 21.4056 8.89028C20.6974 11.2283 20.6974 13.7189 21.4056 16.0569C21.3843 19.0374 18.5361 22.5908 16.5744 23.7392C16.5355 23.7576 16.5011 23.7838 16.4733 23.8163C16.4455 23.8487 16.425 23.8866 16.4132 23.9274C16.4014 23.9682 16.3986 24.0111 16.4048 24.053C16.4111 24.095 16.4263 24.1352 16.4495 24.171C16.4783 24.2182 16.5188 24.2574 16.5674 24.2847C16.6159 24.312 16.6708 24.3265 16.7267 24.3269C16.7837 24.3271 16.8397 24.3115 16.8882 24.2819C18.9687 23.0825 21.8443 19.5172 22.0271 16.3387H31.6804C31.7602 16.3311 31.8343 16.2944 31.8882 16.236C31.9421 16.1775 31.9719 16.1013 31.9719 16.0224C31.9719 15.9434 31.9421 15.8673 31.8882 15.8088C31.8343 15.7503 31.7602 15.7137 31.6804 15.706ZM15.6739 2.4334C15.7681 2.37145 15.8788 2.33839 15.9921 2.33839C16.144 2.33839 16.2896 2.39778 16.397 2.5035C16.5044 2.60922 16.5648 2.75261 16.5648 2.90212C16.5648 3.01362 16.5312 3.12261 16.4682 3.21531C16.4053 3.30802 16.3159 3.38027 16.2112 3.42294C16.1066 3.46561 15.9914 3.47677 15.8803 3.45502C15.7693 3.43327 15.6672 3.37958 15.5871 3.30074C15.507 3.2219 15.4525 3.12145 15.4304 3.0121C15.4083 2.90275 15.4196 2.7894 15.463 2.68639C15.5063 2.58338 15.5797 2.49534 15.6739 2.4334Z" fill="#666666"/>
<defs>
<linearGradient id="paint0_linear_5358_111327" x1="-3.04762" y1="0.5" x2="34.2378" y2="25.0359" gradientUnits="userSpaceOnUse">
<stop stop-color="#DDD9D6"/>
<stop offset="0.212761" stop-color="#8A868C"/>
<stop offset="0.548384" stop-color="#F2F3F3" stop-opacity="0.8"/>
<stop offset="0.914316" stop-color="#807C80"/>
<stop offset="1" stop-color="#A6A8AB"/>
</linearGradient>
</defs>
</svg>
