<svg width="23" height="23" viewBox="0 0 23 23" fill="none" xmlns="http://www.w3.org/2000/svg">
<path d="M9.77518 21.0278C8.77518 21.0278 7.76592 20.7407 6.98814 20.1574L3.02518 17.1945C1.97889 16.4167 1.16406 14.7778 1.16406 13.463V6.60186C1.16406 5.18519 2.20111 3.67592 3.53444 3.17592L8.14555 1.44444C9.06222 1.10185 10.4974 1.10185 11.4141 1.44444L16.0159 3.17592C17.0993 3.58333 18.0159 4.66667 18.3122 5.87037C18.3585 6.07407 18.3122 6.29631 18.1826 6.46298C18.053 6.62964 17.8493 6.73147 17.6363 6.73147L10.3122 6.74074C9.13629 6.81482 8.84925 7.00927 8.84925 8.72224V13.75C8.84925 15.5185 9.08073 15.7407 10.877 15.7407H16.3585C16.6455 15.7407 16.9048 15.9167 17.0067 16.1852C17.1085 16.4537 17.0344 16.7593 16.8215 16.9537C16.7196 17.037 16.6363 17.1204 16.5344 17.1945L12.5715 20.1667C11.7752 20.7407 10.7752 21.0278 9.77518 21.0278ZM9.77518 2.58334C9.35851 2.58334 8.93259 2.6389 8.62704 2.75927L4.01592 4.49075C3.23814 4.78704 2.5437 5.77777 2.5437 6.62037V13.4815C2.5437 14.3519 3.15481 15.5741 3.84926 16.0926L7.81222 19.0555C8.87703 19.8426 10.6641 19.8426 11.7289 19.0555L14.2937 17.1389H10.8678C8.31222 17.1389 7.45111 16.287 7.45111 13.7592V8.73148C7.45111 6.75925 7.92332 5.50927 10.2659 5.36112L10.8678 5.35185H16.5622C16.2844 4.9537 15.9141 4.6389 15.5252 4.49075L10.9233 2.75927C10.6085 2.6389 10.1918 2.58334 9.77518 2.58334Z" fill="#F6AE2D"/>
<path d="M20.3698 11.0832H8.14757C7.76794 11.0832 7.45312 10.7684 7.45312 10.3888C7.45312 10.0092 7.76794 9.69434 8.14757 9.69434H20.3698C20.7494 9.69434 21.0642 10.0092 21.0642 10.3888C21.0642 10.7684 20.7494 11.0832 20.3698 11.0832Z" fill="#F6AE2D"/>
<path d="M17.6476 17.1296H10.8698C8.31424 17.1296 7.45312 16.2777 7.45312 13.75V8.72218C7.45312 6.74996 7.92534 5.49995 10.2679 5.3518L10.8698 5.34253H17.6476C20.2031 5.34253 21.0642 6.1944 21.0642 8.72218V13.8611C21.0457 16.3055 20.1846 17.1296 17.6476 17.1296ZM10.8698 6.73142L10.305 6.74069C9.12905 6.81476 8.84201 7.00922 8.84201 8.72218V13.75C8.84201 15.5185 9.0735 15.7407 10.8698 15.7407H17.6476C19.4161 15.7407 19.6568 15.5092 19.6753 13.8611V8.73142C19.6753 6.9629 19.4439 6.74069 17.6476 6.74069H10.8698V6.73142Z" fill="#F6AE2D"/>
<path d="M11.7164 14.8242H10.4757C10.0961 14.8242 9.78125 14.5094 9.78125 14.1297C9.78125 13.7501 10.0961 13.4353 10.4757 13.4353H11.7164C12.0961 13.4353 12.4109 13.7501 12.4109 14.1297C12.4109 14.5094 12.1053 14.8242 11.7164 14.8242Z" fill="#F6AE2D"/>
<path d="M16.6832 14.8242H13.6554C13.2758 14.8242 12.9609 14.5094 12.9609 14.1297C12.9609 13.7501 13.2758 13.4353 13.6554 13.4353H16.6832C17.0628 13.4353 17.3776 13.7501 17.3776 14.1297C17.3776 14.5094 17.0721 14.8242 16.6832 14.8242Z" fill="#F6AE2D"/>
</svg>
