<svg width="23" height="23" viewBox="0 0 23 23" fill="none" xmlns="http://www.w3.org/2000/svg">
<path d="M15.7396 21.0649H6.48032C3.29514 21.0649 1.15625 18.926 1.15625 15.7408V11.1112C1.15625 8.25933 2.91551 6.19452 5.64699 5.85193C5.90625 5.81489 6.19329 5.78711 6.48032 5.78711H15.7396C15.9618 5.78711 16.2488 5.79637 16.5451 5.84266C19.2766 6.15748 21.0637 8.23155 21.0637 11.1112V15.7408C21.0637 18.926 18.9248 21.0649 15.7396 21.0649ZM6.48032 7.176C6.2581 7.176 6.04514 7.19451 5.83218 7.22228C3.79514 7.48154 2.54514 8.96304 2.54514 11.1112V15.7408C2.54514 18.1297 4.09144 19.676 6.48032 19.676H15.7396C18.1285 19.676 19.6748 18.1297 19.6748 15.7408V11.1112C19.6748 8.94452 18.4062 7.45378 16.3507 7.21304C16.1285 7.17601 15.934 7.176 15.7396 7.176H6.48032Z" fill="#02C39A"/>
<path d="M5.72986 7.23143C5.50764 7.23143 5.30394 7.12958 5.16505 6.9444C5.00764 6.73144 4.98912 6.45366 5.10949 6.22218C5.2669 5.90736 5.48912 5.60181 5.77616 5.32403L8.78542 2.3055C10.3225 0.777724 12.8225 0.777724 14.3595 2.3055L15.9799 3.94441C16.665 4.62033 17.0817 5.52774 17.128 6.4907C17.1373 6.70367 17.0539 6.90735 16.8965 7.04624C16.7391 7.18513 16.5262 7.24996 16.3225 7.21293C16.1373 7.18515 15.9428 7.17588 15.7391 7.17588H6.47986C6.25764 7.17588 6.04468 7.19439 5.83171 7.22217C5.80394 7.23142 5.7669 7.23143 5.72986 7.23143ZM7.27616 5.78699H15.5725C15.4521 5.47218 15.2576 5.18515 14.9984 4.92589L13.3687 3.27774C12.378 2.29626 10.7576 2.29626 9.75764 3.27774L7.27616 5.78699Z" fill="#02C39A"/>
<path d="M20.3709 15.9722H17.5932C16.1858 15.9722 15.0469 14.8333 15.0469 13.4259C15.0469 12.0185 16.1858 10.8796 17.5932 10.8796H20.3709C20.7506 10.8796 21.0654 11.1945 21.0654 11.5741C21.0654 11.9537 20.7506 12.2685 20.3709 12.2685H17.5932C16.9543 12.2685 16.4358 12.787 16.4358 13.4259C16.4358 14.0648 16.9543 14.5833 17.5932 14.5833H20.3709C20.7506 14.5833 21.0654 14.8982 21.0654 15.2778C21.0654 15.6574 20.7506 15.9722 20.3709 15.9722Z" fill="#02C39A"/>
</svg>
