<svg width="23" height="23" viewBox="0 0 23 23" fill="none" xmlns="http://www.w3.org/2000/svg">
<path d="M3.63744 15.3982C3.46152 15.3982 3.28559 15.3334 3.1467 15.1945C2.87818 14.9259 2.87818 14.4815 3.1467 14.213L14.2115 3.14817C14.48 2.87965 14.9245 2.87965 15.193 3.14817C15.4615 3.41668 15.4615 3.86113 15.193 4.12965L4.12818 15.2037C3.99855 15.3334 3.81337 15.3982 3.63744 15.3982Z" fill="#2E63EA"/>
<path d="M10.2781 17.6205C10.1021 17.6205 9.92622 17.5557 9.78733 17.4168C9.51881 17.1483 9.51881 16.7038 9.78733 16.4353L10.8984 15.3242C11.167 15.0557 11.6114 15.0557 11.8799 15.3242C12.1484 15.5927 12.1484 16.0372 11.8799 16.3057L10.7688 17.4168C10.6392 17.5464 10.4633 17.6205 10.2781 17.6205Z" fill="#2E63EA"/>
<path d="M12.7703 15.1296C12.5943 15.1296 12.4184 15.0648 12.2795 14.9259C12.011 14.6573 12.011 14.2129 12.2795 13.9444L14.4925 11.7314C14.761 11.4629 15.2054 11.4629 15.474 11.7314C15.7425 11.9999 15.7425 12.4444 15.474 12.7129L13.261 14.9259C13.1314 15.0555 12.9462 15.1296 12.7703 15.1296Z" fill="#2E63EA"/>
<path d="M10.2798 21.0649C9.37242 21.0649 8.46502 20.5094 7.36316 19.4075L2.81687 14.8612C0.603906 12.6482 0.613166 11.2223 2.84465 8.99084L8.99279 2.84269C11.2243 0.611212 12.6502 0.601953 14.8632 2.81492L19.4095 7.36121C21.6224 9.57417 21.6132 11.0001 19.3817 13.2316L13.2335 19.3797C12.1132 20.5001 11.1965 21.0649 10.2798 21.0649ZM11.9465 2.5464C11.465 2.5464 10.8539 2.94455 9.97428 3.82418L3.82613 9.97232C2.9465 10.852 2.54835 11.4631 2.54835 11.9353C2.54835 12.4168 2.91872 13.0001 3.79835 13.8797L8.34465 18.426C9.22428 19.3057 9.79835 19.676 10.2798 19.676C10.2798 19.676 10.2798 19.676 10.2891 19.676C10.7706 19.676 11.3724 19.2779 12.2521 18.3982L18.4002 12.2501C19.2798 11.3705 19.678 10.7594 19.678 10.2871C19.678 9.80566 19.3076 9.22232 18.428 8.34269L13.8817 3.7964C13.0113 2.91677 12.428 2.5464 11.9465 2.5464Z" fill="#2E63EA"/>
<path d="M20.3692 21.0649H1.85069C1.47106 21.0649 1.15625 20.7501 1.15625 20.3705C1.15625 19.9908 1.47106 19.676 1.85069 19.676H20.3692C20.7488 19.676 21.0637 19.9908 21.0637 20.3705C21.0637 20.7501 20.7488 21.0649 20.3692 21.0649Z" fill="#2E63EA"/>
</svg>
