<svg width="23" height="23" viewBox="0 0 23 23" fill="none" xmlns="http://www.w3.org/2000/svg">
<path d="M11.1114 21.0648C7.4077 21.0648 4.39844 18.4074 4.39844 15.1389V11.713C4.39844 11.3334 4.71325 11.0186 5.09288 11.0186C5.47251 11.0186 5.78733 11.3334 5.78733 11.713C5.78733 14.1389 8.07436 15.9723 11.1114 15.9723C14.1484 15.9723 16.4355 14.1389 16.4355 11.713C16.4355 11.3334 16.7503 11.0186 17.1299 11.0186C17.5095 11.0186 17.8244 11.3334 17.8244 11.713V15.1389C17.8244 18.4074 14.8151 21.0648 11.1114 21.0648ZM5.78733 15.2408C5.85214 17.6945 8.21325 19.676 11.1114 19.676C14.0095 19.676 16.3707 17.6945 16.4355 15.2408C15.2318 16.5463 13.3244 17.3611 11.1114 17.3611C8.89844 17.3611 7.00029 16.5463 5.78733 15.2408Z" fill="#F46036"/>
<path d="M11.1114 12.7315C8.55585 12.7315 6.25954 11.5834 5.13917 9.73154C4.65769 8.94451 4.39844 8.02784 4.39844 7.0834C4.39844 5.49081 5.1114 3.9908 6.39844 2.86117C7.6577 1.75932 9.33362 1.15747 11.1114 1.15747C12.8892 1.15747 14.5558 1.75932 15.8244 2.85192C17.1114 3.99081 17.8244 5.49081 17.8244 7.0834C17.8244 8.02784 17.5651 8.93525 17.0836 9.73154C15.9633 11.5834 13.667 12.7315 11.1114 12.7315ZM11.1114 2.54636C9.66696 2.54636 8.31512 3.02784 7.30586 3.91673C6.32438 4.76858 5.78733 5.89821 5.78733 7.0834C5.78733 7.77784 5.9725 8.42599 6.32435 9.00932C7.20398 10.4538 9.03733 11.3427 11.1114 11.3427C13.1855 11.3427 15.0188 10.4445 15.8985 9.00932C16.2596 8.42599 16.4355 7.77784 16.4355 7.0834C16.4355 5.89821 15.8984 4.76858 14.9077 3.89821C13.8984 3.02784 12.5558 2.54636 11.1114 2.54636Z" fill="#F46036"/>
<path d="M11.1114 17.3612C7.28733 17.3612 4.39844 14.9352 4.39844 11.713V7.0834C4.39844 3.81488 7.4077 1.15747 11.1114 1.15747C12.8892 1.15747 14.5558 1.75932 15.8244 2.85192C17.1114 3.99081 17.8244 5.49081 17.8244 7.0834V11.713C17.8244 14.9352 14.9355 17.3612 11.1114 17.3612ZM11.1114 2.54636C8.17622 2.54636 5.78733 4.5834 5.78733 7.0834V11.713C5.78733 14.139 8.07436 15.9723 11.1114 15.9723C14.1484 15.9723 16.4355 14.139 16.4355 11.713V7.0834C16.4355 5.89821 15.8984 4.76858 14.9077 3.89821C13.8984 3.02784 12.5558 2.54636 11.1114 2.54636Z" fill="#F46036"/>
</svg>
