<svg width="150" height="51" viewBox="0 0 150 51" fill="none" xmlns="http://www.w3.org/2000/svg">
<rect y="0.308594" width="150" height="50" rx="5" fill="#E2E1E5" fill-opacity="0.16"/>
<path fill-rule="evenodd" clip-rule="evenodd" d="M53.8636 33.1962H47.9359L46.5123 37.4832H44.0016L49.6162 21.6225H52.2248L57.8395 37.4832H55.2859L53.8636 33.1962ZM48.5498 31.218H53.2485L50.9322 24.2606H50.8674L48.5498 31.218ZM69.9652 31.7019C69.9652 35.2954 68.0794 37.6041 65.2336 37.6041C63.7626 37.6826 62.377 36.8968 61.6662 35.581H61.6123V41.3086H59.285V25.9195H61.5377V27.8428H61.5805C62.3229 26.5352 63.71 25.7498 65.1908 25.7985C68.0684 25.7985 69.9652 28.1185 69.9652 31.7019ZM67.5731 31.7019C67.5731 29.3608 66.3868 27.8216 64.5768 27.8216C62.7986 27.8216 61.6026 29.3932 61.6026 31.7019C61.6026 34.0319 62.7986 35.5923 64.5768 35.5923C66.3868 35.5923 67.5731 34.0643 67.5731 31.7019ZM82.4444 31.7019C82.4444 35.2954 80.5586 37.6041 77.7128 37.6041C76.2418 37.6826 74.8562 36.8968 74.1453 35.581H74.0915V41.3086H71.7642V25.9195H74.0169V27.8428H74.0597C74.8021 26.5352 76.1892 25.7498 77.6699 25.7985C80.5476 25.7985 82.4444 28.1185 82.4444 31.7019ZM80.0523 31.7019C80.0523 29.3608 78.866 27.8216 77.056 27.8216C75.2778 27.8216 74.0817 29.3932 74.0817 31.7019C74.0817 34.0319 75.2778 35.5923 77.056 35.5923C78.866 35.5923 80.0523 34.0643 80.0523 31.7019ZM90.6921 33.064C90.8646 34.6368 92.3627 35.6695 94.41 35.6695C96.3716 35.6695 97.7829 34.6368 97.7829 33.2186C97.7829 31.9875 96.9317 31.2504 94.9163 30.7452L92.9008 30.25C90.0452 29.5465 88.7195 28.1845 88.7195 25.9743C88.7195 23.2377 91.0578 21.358 94.3782 21.358C97.6643 21.358 99.917 23.2377 99.9928 25.9743H97.6435C97.5028 24.3915 96.2199 23.436 94.3451 23.436C92.4703 23.436 91.1874 24.4027 91.1874 25.8097C91.1874 26.931 92.0068 27.5908 94.0113 28.0959L95.7246 28.525C98.9154 29.2945 100.241 30.6017 100.241 32.9217C100.241 35.889 97.9235 37.7475 94.2375 37.7475C90.7887 37.7475 88.4602 35.9327 88.3098 33.0639L90.6921 33.064ZM105.264 23.1829V25.9195H107.42V27.7991H105.264V34.1741C105.264 35.1644 105.696 35.6259 106.643 35.6259C106.899 35.6214 107.155 35.603 107.409 35.571V37.4395C106.983 37.5207 106.55 37.5574 106.116 37.5492C103.821 37.5492 102.926 36.6699 102.926 34.4272V27.7991H101.277V25.9195H102.925V23.1829H105.264ZM108.669 31.7019C108.669 28.0636 110.77 25.7773 114.046 25.7773C117.333 25.7773 119.425 28.0635 119.425 31.7019C119.425 35.3503 117.344 37.6266 114.046 37.6266C110.749 37.6266 108.669 35.3503 108.669 31.7019ZM117.053 31.7019C117.053 29.2061 115.932 27.733 114.046 27.733C112.16 27.733 111.04 29.2173 111.04 31.7019C111.04 34.2078 112.16 35.6696 114.046 35.6696C115.932 35.6696 117.053 34.2078 117.053 31.7019ZM121.343 25.9195H123.563V27.8877H123.617C123.927 26.6207 125.065 25.7486 126.344 25.7985C126.612 25.7975 126.88 25.8272 127.142 25.887V28.1072C126.803 28.0017 126.45 27.9532 126.096 27.9638C125.412 27.9355 124.75 28.2136 124.283 28.7251C123.817 29.2366 123.593 29.9303 123.671 30.6243V37.4831H121.343L121.343 25.9195ZM137.872 34.0868C137.559 36.186 135.554 37.6266 132.99 37.6266C129.691 37.6266 127.644 35.3727 127.644 31.7568C127.644 28.1297 129.702 25.7773 132.892 25.7773C136.029 25.7773 138.002 27.975 138.002 31.4812V32.2944H129.994V32.4378C129.919 33.2987 130.21 34.1509 130.794 34.7776C131.377 35.4042 132.197 35.745 133.044 35.7132C134.173 35.8211 135.238 35.1597 135.662 34.0867L137.872 34.0868ZM130.005 30.6355L135.673 30.6355C135.715 29.8619 135.439 29.1054 134.911 28.5483C134.383 27.9912 133.651 27.684 132.892 27.7006C132.126 27.6959 131.391 28.0033 130.849 28.5545C130.306 29.1056 130.003 29.8548 130.005 30.6355ZM48.2581 9.6841C49.2461 9.61179 50.2139 9.99517 50.895 10.7287C51.5761 11.4623 51.8987 12.4686 51.7742 13.4709C51.7742 15.9056 50.4839 17.3051 48.2581 17.3051H45.559V9.6841H48.2581ZM46.7196 16.2274H48.1285C48.8346 16.2704 49.5221 15.9867 50.0001 15.455C50.4782 14.9232 50.6959 14.2001 50.5928 13.4864C50.6884 12.7757 50.4675 12.0585 49.9907 11.5311C49.5138 11.0038 48.8308 10.7213 48.1285 10.7611H46.7196V16.2274ZM53.0852 14.4269C52.9885 13.396 53.4731 12.3984 54.3359 11.8523C55.1987 11.3063 56.2904 11.3063 57.1531 11.8523C58.0159 12.3984 58.5006 13.396 58.4039 14.4269C58.5024 15.4589 58.0182 16.4585 57.1546 17.0057C56.2911 17.5529 55.1979 17.5529 54.3344 17.0057C53.4709 16.4585 52.9866 15.4589 53.0852 14.4269ZM57.2592 14.4269C57.2592 13.1802 56.71 12.4512 55.7464 12.4512C54.779 12.4512 54.2348 13.1802 54.2348 14.4269C54.2348 15.6836 54.779 16.407 55.7464 16.407C56.7101 16.407 57.2592 15.6786 57.2592 14.4269ZM65.4739 17.305H64.3194L63.1539 13.0692H63.0658L61.9052 17.305H60.7618L59.2074 11.5537H60.3362L61.3463 15.9423H61.4295L62.5889 11.5537H63.6565L64.8159 15.9423H64.904L65.9092 11.5537H67.0221L65.4739 17.305ZM68.3295 11.5537H69.4008V12.4674H69.484C69.7732 11.7947 70.449 11.3832 71.1668 11.4427C71.7226 11.4001 72.2673 11.6176 72.647 12.0337C73.0267 12.4498 73.2002 13.0195 73.1187 13.5818V17.305H72.0058V13.8669C72.0058 12.9426 71.612 12.483 70.7889 12.483C70.4119 12.4651 70.046 12.616 69.7872 12.8961C69.5284 13.1762 69.4025 13.5577 69.4424 13.9404V17.305H68.3295L68.3295 11.5537ZM74.892 9.30859H76.0049V17.305H74.892V9.30859ZM77.5519 14.4269C77.4553 13.396 77.94 12.3983 78.8029 11.8522C79.6657 11.3062 80.7575 11.3062 81.6203 11.8522C82.4831 12.3983 82.9679 13.396 82.8712 14.4269C82.9697 15.4589 82.4853 16.4585 81.6218 17.0057C80.7582 17.5529 79.665 17.5529 78.8014 17.0057C77.9378 16.4585 77.4535 15.4589 77.5519 14.4269ZM81.7259 14.4269C81.7259 13.1802 81.1768 12.4512 80.2131 12.4512C79.2457 12.4512 78.7016 13.1802 78.7016 14.4269C78.7016 15.6836 79.2458 16.407 80.2131 16.407C81.1768 16.407 81.7259 15.6786 81.7259 14.4269ZM84.0429 15.6786C84.0429 14.6433 84.7987 14.0465 86.1402 13.9616L87.6677 13.8718V13.3754C87.6677 12.768 87.2739 12.425 86.5133 12.425C85.892 12.425 85.4615 12.6576 85.338 13.0642H84.2605C84.3743 12.0764 85.2854 11.4427 86.5646 11.4427C87.9784 11.4427 88.7758 12.1605 88.7758 13.3754V17.305H87.7044V16.4968H87.6164C87.2525 17.087 86.6054 17.432 85.9226 17.3998C85.4438 17.4506 84.9664 17.2924 84.6083 16.9645C84.2501 16.6366 84.0447 16.1694 84.0429 15.6786ZM87.6677 15.1871V14.7063L86.2907 14.7961C85.5141 14.8491 85.1619 15.1185 85.1619 15.6255C85.1619 16.1432 85.6021 16.4444 86.2076 16.4444C86.5659 16.4814 86.9237 16.3685 87.199 16.1315C87.4742 15.8945 87.6434 15.5537 87.6677 15.1871ZM90.2384 14.4269C90.2384 12.6096 91.1544 11.4583 92.5792 11.4583C93.2986 11.4245 93.9724 11.8177 94.3085 12.4673H94.3916V9.30859H95.5045V17.305H94.4381V16.3963H94.3501C93.9886 17.0406 93.3065 17.4271 92.5792 17.3998C91.1446 17.3999 90.2384 16.2486 90.2384 14.4269ZM91.388 14.4269C91.388 15.6468 91.9518 16.3808 92.8948 16.3808C93.8327 16.3808 94.4125 15.6362 94.4125 14.4319C94.4125 13.2332 93.8267 12.478 92.8948 12.478C91.9579 12.478 91.388 13.217 91.388 14.4269ZM100.109 14.4269C100.012 13.396 100.497 12.3984 101.36 11.8523C102.223 11.3063 103.314 11.3063 104.177 11.8523C105.04 12.3984 105.524 13.396 105.428 14.4269C105.526 15.4589 105.042 16.4585 104.178 17.0057C103.315 17.5529 102.222 17.5529 101.358 17.0057C100.495 16.4585 100.01 15.4589 100.109 14.4269ZM104.283 14.4269C104.283 13.1802 103.734 12.4512 102.77 12.4512C101.803 12.4512 101.259 13.1802 101.259 14.4269C101.259 15.6836 101.803 16.407 102.77 16.407C103.734 16.407 104.283 15.6786 104.283 14.4269ZM106.921 11.5537H107.992V12.4674H108.075C108.365 11.7947 109.04 11.3832 109.758 11.4427C110.314 11.4001 110.859 11.6176 111.238 12.0337C111.618 12.4498 111.792 13.0195 111.71 13.5818V17.305H110.597V13.8669C110.597 12.9426 110.203 12.483 109.38 12.483C109.003 12.4651 108.638 12.616 108.379 12.8961C108.12 13.1762 107.994 13.5577 108.034 13.9404V17.305H106.921V11.5537ZM117.999 10.1218V11.5799H119.22V12.536H117.999V15.4933C117.999 16.0958 118.242 16.3596 118.796 16.3596C118.938 16.3591 119.08 16.3504 119.22 16.3334V17.2788C119.021 17.3153 118.818 17.3347 118.615 17.3368C117.377 17.3368 116.885 16.8928 116.885 15.7839V12.5359H115.989V11.5799H116.885V10.1218H117.999ZM120.741 9.30859H121.844V12.478H121.932C122.235 11.7994 122.922 11.3874 123.651 11.4477C124.204 11.417 124.741 11.6393 125.117 12.0539C125.492 12.4685 125.667 13.0324 125.593 13.5918V17.305H124.479V13.8718C124.479 12.9532 124.06 12.4879 123.273 12.4879C122.886 12.4556 122.505 12.5991 122.231 12.8802C121.957 13.1614 121.819 13.5514 121.853 13.946V17.305H120.741L120.741 9.30859ZM132.082 15.7521C131.77 16.837 130.741 17.5379 129.639 17.416C128.887 17.4363 128.164 17.1184 127.663 16.5467C127.161 15.9751 126.931 15.2074 127.034 14.4475C126.934 13.6854 127.163 12.9165 127.662 12.34C128.161 11.7635 128.88 11.4362 129.634 11.4427C131.203 11.4427 132.15 12.536 132.15 14.342V14.7381H128.168V14.8017C128.132 15.2285 128.275 15.6506 128.561 15.9643C128.847 16.278 129.25 16.4541 129.669 16.4493C130.214 16.516 130.744 16.2406 131.011 15.7521L132.082 15.7521ZM128.168 13.8987H131.016C131.044 13.5083 130.91 13.1239 130.645 12.8402C130.381 12.5565 130.011 12.3998 129.628 12.4088C129.239 12.4038 128.865 12.5592 128.59 12.8397C128.315 13.1202 128.163 13.5021 128.168 13.8987ZM31.3151 25.4752C31.318 28.1547 32.927 30.5729 35.4016 31.6166C34.9257 33.1585 34.2083 34.6155 33.276 35.9339C32.0241 37.8016 30.7114 39.6264 28.6279 39.6601C26.6035 39.7067 25.9231 38.4719 23.6012 38.4719C21.2575 38.4719 20.5323 39.6264 18.5907 39.7067C16.6065 39.78 15.0901 37.7132 13.7926 35.863C11.1993 32.0845 9.17989 25.2145 11.8871 20.54C13.1584 18.2617 15.5354 16.816 18.1484 16.7318C20.1344 16.6911 21.9787 18.0694 23.1997 18.0694C24.3975 18.0694 26.6764 16.4206 29.027 16.6666C31.2613 16.7363 33.3318 17.8527 34.6139 19.6788C32.5907 20.9193 31.3457 23.1069 31.3151 25.4752ZM27.4914 14.1816C26.3892 15.5487 24.7193 16.3361 22.9605 16.3181C22.8486 14.604 23.4246 12.9158 24.5614 11.6255C25.7128 10.3176 27.3159 9.49039 29.0515 9.30859C29.187 11.0735 28.6273 12.8216 27.4914 14.1816Z" fill="#F1F5FB"/>
</svg>
