<svg width="166" height="51" viewBox="0 0 166 51" fill="none" xmlns="http://www.w3.org/2000/svg">
<rect y="0.308594" width="166" height="50" rx="5" fill="#E2E1E5" fill-opacity="0.16"/>
<path fill-rule="evenodd" clip-rule="evenodd" d="M58.0163 12.5495C58.0583 13.4778 57.7265 14.3833 57.0981 15.0544C56.3959 15.8007 55.4165 16.206 54.4046 16.1691C52.8526 16.1567 51.4592 15.1937 50.8685 13.7254C50.2778 12.2571 50.6051 10.5697 51.6989 9.4433C52.4097 8.70099 53.3892 8.29292 54.4046 8.31607C54.9222 8.3143 55.4347 8.42086 55.9105 8.62919C56.3535 8.81199 56.7479 9.09957 57.0613 9.46835L56.4125 10.1322C55.917 9.52932 55.1733 9.19993 54.4046 9.24291C53.6319 9.23903 52.891 9.55739 52.3528 10.1246C51.8145 10.6918 51.5254 11.4588 51.552 12.2489C51.5356 13.4427 52.2229 14.5294 53.2941 15.0034C54.3653 15.4774 55.6101 15.2455 56.4492 14.4157C56.8259 13.998 57.0432 13.4556 57.0613 12.8876H54.4046V11.9858H57.9673C58 12.1719 58.0164 12.3605 58.0163 12.5495ZM63.6235 9.41825H60.318V11.798H63.3297V12.6998H60.318V15.0795H63.6235V16.0063H59.3385V8.49142H63.6235V9.41825ZM67.6392 16.0063H66.6965V9.41825H64.6397V8.49142H69.745V9.41825H67.6392V16.0063ZM73.3444 16.0063V8.49142H74.2871V16.0063H73.3444ZM78.4742 16.0063H77.5315V9.41825H75.4747V8.49142H80.5188V9.41825H78.4742V16.0063ZM90.0805 15.0294C88.5905 16.5452 86.1836 16.5452 84.6936 15.0294C83.2493 13.4653 83.2493 11.0199 84.6936 9.45583C85.4061 8.72156 86.3757 8.30859 87.3871 8.30859C88.3984 8.30859 89.368 8.72156 90.0805 9.45583C91.531 11.0174 91.531 13.4678 90.0805 15.0294ZM85.3915 14.4031C86.4949 15.5273 88.2792 15.5273 89.3827 14.4031C90.4664 13.1809 90.4664 11.3168 89.3827 10.0946C88.2792 8.97041 86.4949 8.97041 85.3915 10.0946C84.3077 11.3168 84.3077 13.1809 85.3915 14.4031ZM92.4923 16.0063V8.49142H93.6432L97.2181 14.3405V8.49142H98.1608V16.0063H97.1814L93.4473 9.88167V16.0063H92.4923ZM83.3836 26.9656C84.7738 26.9383 86.1154 27.4895 87.1009 28.493C88.0864 29.4965 88.6315 30.8663 88.6113 32.2886C88.6113 35.2252 86.2867 37.607 83.4162 37.6116C80.5458 37.6162 78.2139 35.2418 78.2049 32.3052C78.1959 29.3687 80.5132 26.9794 83.3836 26.9656ZM83.3836 35.52C84.1957 35.5008 84.9657 35.1467 85.519 34.5383C86.0722 33.9299 86.3618 33.1186 86.3219 32.2886C86.3188 30.9618 85.5231 29.7718 84.3155 29.2878C83.108 28.8038 81.7339 29.1241 80.8505 30.0956C79.9672 31.0671 79.754 32.4922 80.3131 33.6894C80.8722 34.8867 82.0898 35.6126 83.3836 35.52ZM71.9855 26.9656H71.9732C73.3634 26.9383 74.7049 27.4895 75.6905 28.493C76.676 29.4965 77.2211 30.8663 77.2009 32.2886C77.2009 35.2268 74.8738 37.6094 72.0018 37.6117C69.1297 37.614 66.799 35.2352 66.7945 32.297C66.79 29.3587 69.1134 26.9725 71.9855 26.9656ZM71.9855 35.52H71.9732C72.7853 35.5008 73.5553 35.1467 74.1086 34.5383C74.6618 33.9299 74.9514 33.1186 74.9115 32.2886C74.908 30.9607 74.1108 29.7702 72.9017 29.2873C71.6926 28.8043 70.3177 29.1273 69.4356 30.1014C68.5536 31.0755 68.3438 32.5026 68.9068 33.699C69.4698 34.8955 70.691 35.6178 71.9855 35.52ZM58.4081 28.6063L65.8395 28.5437C65.9249 29.0103 65.9659 29.4843 65.9619 29.959C66.0195 31.9076 65.3347 33.8028 64.052 35.2445C62.5863 36.8147 60.5282 37.6596 58.4081 37.5616C55.444 37.6796 52.6544 36.1292 51.138 33.521C49.6217 30.9128 49.6217 27.665 51.138 25.0568C52.6544 22.4487 55.444 20.8983 58.4081 21.0163C60.4902 20.9978 62.491 21.8427 63.9541 23.3584L62.3993 24.9491C61.3265 23.8895 59.8868 23.3085 58.3958 23.3334C55.1503 23.3334 52.5192 26.025 52.5192 29.3453C52.5192 32.6656 55.1503 35.3572 58.3958 35.3572C59.9219 35.4194 61.4027 34.8189 62.4727 33.7039C63.1826 32.9246 63.6141 31.9227 63.697 30.8608H58.4081V28.6063ZM113.881 30.3598L114.138 30.9234L107.172 33.8668C107.608 34.884 108.608 35.5248 109.694 35.4825C110.741 35.4852 111.713 34.9238 112.252 34.0045L114.028 35.257C113.061 36.7368 111.433 37.6213 109.694 37.6117C108.311 37.6324 106.979 37.077 106.005 36.0731C105.031 35.0692 104.497 33.7031 104.527 32.2886C104.443 30.9065 104.921 29.5503 105.849 28.5419C106.776 27.5335 108.071 26.9629 109.424 26.9656C111.454 27.042 113.227 28.3924 113.881 30.3598ZM106.78 32.1383L111.432 30.1594C111.066 29.4213 110.305 28.9777 109.498 29.0322C108.732 29.0675 108.012 29.4167 107.501 30.0011C106.99 30.5854 106.73 31.3557 106.78 32.1383ZM101.124 37.2986V21.6425H103.413V37.2986H101.124ZM97.3773 28.1554V27.2787H99.4831V36.76C99.4831 40.6928 97.2671 42.3085 94.5859 42.3085C92.5649 42.3209 90.7388 41.0771 89.9703 39.1648L91.9659 38.3131C92.383 39.4291 93.4183 40.1764 94.5859 40.2043C96.2999 40.2043 97.365 39.1147 97.365 37.0731V36.3091H97.2916C96.6035 37.121 95.5994 37.5797 94.5492 37.5616C91.7702 37.4237 89.5863 35.0786 89.5863 32.2323C89.5863 29.386 91.7702 27.0408 94.5492 26.9029C95.596 26.9015 96.5937 27.3572 97.2916 28.1554H97.3773ZM94.7573 35.52H94.745C95.5407 35.4887 96.2892 35.1257 96.8165 34.5153C97.3438 33.9049 97.6039 33.1003 97.5364 32.2886C97.5969 31.4807 97.3359 30.682 96.8127 30.0736C96.2895 29.4652 95.5483 29.0987 94.7573 29.0572C93.1203 29.2048 91.8647 30.6074 91.8647 32.2886C91.8647 33.9698 93.1203 35.3724 94.7573 35.52ZM124.618 21.6425C126.396 21.5118 128.097 22.4084 129.025 23.9659C129.954 25.5234 129.954 27.4809 129.025 29.0384C128.097 30.5959 126.396 31.4925 124.618 31.3618H121.422V37.2986H119.133V21.6425H124.618ZM124.606 29.1574L124.655 29.195C126.105 29.195 127.281 27.9922 127.281 26.5084C127.281 25.0247 126.105 23.8218 124.655 23.8218H121.41V29.1574H124.606ZM138.722 26.9029L138.783 26.9405C141.391 26.9405 143.423 28.5312 143.423 31.2741V37.2986H141.219V36.0461H141.146C140.509 37.059 139.382 37.6353 138.207 37.5491C137.254 37.6211 136.313 37.2958 135.599 36.647C134.884 35.9983 134.456 35.0813 134.412 34.1047C134.412 31.8377 136.628 30.5852 138.82 30.5852C139.652 30.5816 140.472 30.7881 141.207 31.1864V31.0236C141.149 30.4219 140.856 29.8694 140.396 29.4902C139.935 29.111 139.345 28.937 138.758 29.0071C137.903 28.9355 137.086 29.3875 136.677 30.1594L134.645 29.2952C135.417 27.7385 137.018 26.7988 138.722 26.9029ZM138.44 35.4825L138.501 35.52C139.88 35.4856 141.024 34.4171 141.182 33.0151C140.547 32.6523 139.828 32.4707 139.101 32.489C137.95 32.489 136.653 32.9023 136.653 34.1548C136.653 35.0942 137.693 35.4825 138.44 35.4825ZM151.454 27.2787H154.001L147.732 42.0455H145.345L147.671 36.7725L143.594 27.2787H146.043L148.761 34.0672H148.834L151.454 27.2787ZM130.874 37.2986V21.6425H133.163V37.2986H130.874ZM40.2208 24.2669C40.5303 24.4459 40.7152 24.7662 40.7151 25.1237C40.7151 25.4812 40.5302 25.8016 40.2207 25.9801L34.6032 29.2224L30.6598 25.4105L34.9746 21.2396L40.2208 24.2669ZM34.0841 20.7252L29.9488 24.723L15.6583 10.9086L28.3108 17.3923L34.0841 20.7252ZM15.8684 39.7086L29.9488 26.0979L33.7128 29.7368L28.3325 32.8427L15.8684 39.7086ZM14.8142 11.4678L29.2377 25.4102L14.8008 39.366L14.8142 11.4678Z" fill="#F1F5FB"/>
</svg>
