<svg width="56" height="64" viewBox="0 0 56 64" fill="none" xmlns="http://www.w3.org/2000/svg">
<rect x="6" y="10" width="44" height="44" rx="22" fill="#668A99"/>
<path d="M37.0003 23C36.0853 23 35.2453 22.475 34.8253 21.665L33.7453 19.49C33.0553 18.125 31.2553 17 29.7253 17H26.2903C24.7453 17 22.9453 18.125 22.2553 19.49L21.1753 21.665C20.7553 22.475 19.9153 23 19.0003 23C15.7453 23 13.1653 25.745 13.3753 28.985L14.1553 41.375C14.3353 44.465 16.0003 47 20.1403 47H35.8603C40.0003 47 41.6503 44.465 41.8453 41.375L42.6253 28.985C42.8353 25.745 40.2553 23 37.0003 23ZM25.7503 24.875H30.2503C30.8653 24.875 31.3753 25.385 31.3753 26C31.3753 26.615 30.8653 27.125 30.2503 27.125H25.7503C25.1353 27.125 24.6253 26.615 24.6253 26C24.6253 25.385 25.1353 24.875 25.7503 24.875ZM28.0003 41.18C25.2103 41.18 22.9303 38.915 22.9303 36.11C22.9303 33.305 25.1953 31.04 28.0003 31.04C30.8053 31.04 33.0703 33.305 33.0703 36.11C33.0703 38.915 30.7903 41.18 28.0003 41.18Z" fill="white"/>
</svg>
