<svg width="80" height="80" viewBox="0 0 80 80" fill="none" xmlns="http://www.w3.org/2000/svg">
<path d="M57.7821 19.1551C49.8021 19.1551 43.8488 15.4413 40.0288 8.10148C36.4155 15.3556 31.0999 19.1551 24.4488 19.1551C23.2221 19.1551 22.2266 18.1455 22.2266 16.9016C22.2266 15.6576 23.2221 14.648 24.4488 14.648C30.5132 14.648 35.0377 10.2378 37.8955 1.54142C38.1999 0.619724 39.0466 0 40.0044 0C40.9621 0 41.8088 0.619724 42.1132 1.54142C45.051 10.4812 50.031 14.648 57.7821 14.648C59.011 14.648 60.0044 15.6576 60.0044 16.9016C60.0044 18.1455 59.011 19.1551 57.7821 19.1551Z" fill="#292F33"/>
<path d="M32.6962 20.6285C40.1717 28.2139 33.8028 34.0461 26.3228 41.6293C18.845 49.2125 13.0917 55.6734 5.61391 48.0924C-1.8661 40.507 -1.8661 28.2117 5.61391 20.6285C13.0939 13.0431 25.2161 13.0431 32.6962 20.6285Z" fill="#F6AE2D"/>
<path d="M34.5398 23.5988C38.0598 27.1706 35.0909 35.9617 27.9109 43.2429C20.7309 50.5241 12.062 53.5371 8.5398 49.963C5.0198 46.3933 7.98869 37.6 15.1665 30.3188C22.3487 23.0399 31.0198 20.0292 34.5398 23.5988Z" fill="#BE1931"/>
<path d="M47.309 20.6285C39.8357 28.2139 46.2024 34.0461 53.6824 41.6293C61.1602 49.2125 66.9135 55.6734 74.3913 48.0924C81.8691 40.507 81.8691 28.2117 74.3913 20.6285C66.9135 13.0431 54.7913 13.0431 47.309 20.6285Z" fill="#F6AE2D"/>
<path d="M45.4708 23.5988C41.9486 27.1706 44.9175 35.9617 52.0975 43.2429C59.2753 50.5241 67.9486 53.5371 71.4686 49.963C74.9886 46.3933 72.0198 37.6 64.8397 30.3188C57.662 23.0399 48.9886 20.0292 45.4708 23.5988Z" fill="#BE1931"/>
<path d="M49.809 39.9348C50.2512 39.5742 50.829 39.3849 51.4401 39.4503C53.3668 39.6621 54.9912 40.3427 56.1268 41.4176C57.329 42.5556 57.9201 44.0835 57.7579 45.6137C57.4712 48.2977 54.8157 50.763 50.2845 50.2673C48.5223 50.0757 47.7379 50.6504 47.7112 50.923C47.6801 51.1957 48.3268 51.9281 50.089 52.1219C52.0156 52.3338 53.6401 53.0143 54.7757 54.0893C55.9779 55.2273 56.5734 56.7552 56.4068 58.2854C56.1201 60.9716 53.4645 63.4347 48.9379 62.9412C47.6534 62.8015 46.9756 63.0696 46.689 63.2432C46.4601 63.3851 46.369 63.5226 46.3601 63.5992C46.3334 63.8696 46.9712 64.6021 48.7379 64.7959C49.9579 64.9311 50.8423 66.0421 50.709 67.2793C50.5779 68.5165 49.4845 69.4111 48.2601 69.2782C43.7334 68.7846 41.6534 65.8032 41.9401 63.1147C42.2268 60.4285 44.8823 57.9654 49.4134 58.4611C50.6979 58.6031 51.3712 58.3327 51.6579 58.1592C51.889 58.0195 51.9801 57.882 51.9868 57.8054C52.0179 57.5327 51.3756 56.8003 49.609 56.6065C45.0823 56.1107 43.0023 53.1315 43.289 50.443C43.5756 47.7568 46.2312 45.2914 50.7579 45.7917C52.0423 45.9314 52.7201 45.661 53.0068 45.4875C53.2357 45.3478 53.3268 45.2103 53.3357 45.1337C53.3623 44.861 52.7201 44.1286 50.9579 43.9348C49.7379 43.8019 48.8534 42.6886 48.9868 41.4514C49.0579 40.8294 49.3668 40.2976 49.809 39.9348Z" fill="#AA8DD8"/>
<path d="M33.9332 79.6135C29.5487 80.8688 26.5243 78.8879 25.8043 76.2851C25.0843 73.6845 26.6443 70.392 31.0265 69.1413C32.7376 68.6546 33.251 67.8253 33.1821 67.5616C33.1065 67.2934 32.2376 66.8585 30.531 67.3452C26.1487 68.5982 23.1243 66.6151 22.4043 64.0123C21.6798 61.4094 23.2443 58.1215 27.6287 56.8708C29.3376 56.3818 29.8532 55.5502 29.7776 55.2865C29.7043 55.0251 28.8376 54.5857 27.1287 55.0725C25.951 55.4082 24.7199 54.7141 24.3887 53.5175C24.0598 52.3164 24.7465 51.0747 25.9287 50.7366C30.3087 49.4859 33.3354 51.4623 34.0599 54.0696C34.7799 56.6702 33.2176 59.9581 28.8332 61.2134C27.1221 61.7001 26.6087 62.5294 26.6843 62.7931C26.7554 63.0568 27.6221 63.4962 29.3287 63.0094C33.7154 61.7565 36.7376 63.7351 37.4599 66.3424C38.1821 68.9408 36.6199 72.2287 32.2332 73.4839C30.5265 73.9684 30.0132 74.8045 30.0843 75.0636C30.1599 75.3295 31.0243 75.7667 32.7332 75.2822C33.9154 74.9419 35.1399 75.6405 35.4732 76.8372C35.8043 78.0338 35.1154 79.28 33.9332 79.6135Z" fill="#77B255"/>
<path d="M5.5599 64.2255C7.40085 64.2255 8.89323 62.7121 8.89323 60.8452C8.89323 58.9783 7.40085 57.4648 5.5599 57.4648C3.71895 57.4648 2.22656 58.9783 2.22656 60.8452C2.22656 62.7121 3.71895 64.2255 5.5599 64.2255Z" fill="#5C913B"/>
<path d="M15.5616 73.2398C18.0162 73.2398 20.0061 71.2219 20.0061 68.7327C20.0061 66.2435 18.0162 64.2256 15.5616 64.2256C13.107 64.2256 11.1172 66.2435 11.1172 68.7327C11.1172 71.2219 13.107 73.2398 15.5616 73.2398Z" fill="#9266CC"/>
<path d="M66.671 64.2261C69.1256 64.2261 71.1155 62.2082 71.1155 59.719C71.1155 57.2298 69.1256 55.2119 66.671 55.2119C64.2164 55.2119 62.2266 57.2298 62.2266 59.719C62.2266 62.2082 64.2164 64.2261 66.671 64.2261Z" fill="#9266CC"/>
<path d="M56.6732 73.2401C58.5141 73.2401 60.0065 71.7267 60.0065 69.8598C60.0065 67.9929 58.5141 66.4795 56.6732 66.4795C54.8322 66.4795 53.3398 67.9929 53.3398 69.8598C53.3398 71.7267 54.8322 73.2401 56.6732 73.2401Z" fill="#5C913B"/>
<path d="M38.888 46.1972C40.729 46.1972 42.2214 44.6837 42.2214 42.8168C42.2214 40.9499 40.729 39.4365 38.888 39.4365C37.0471 39.4365 35.5547 40.9499 35.5547 42.8168C35.5547 44.6837 37.0471 46.1972 38.888 46.1972Z" fill="#5C913B"/>
<path d="M15.5616 55.2114C18.0162 55.2114 20.0061 53.1935 20.0061 50.7044C20.0061 48.2152 18.0162 46.1973 15.5616 46.1973C13.107 46.1973 11.1172 48.2152 11.1172 50.7044C11.1172 53.1935 13.107 55.2114 15.5616 55.2114Z" fill="#FFCC4D"/>
<path d="M61.1146 39.4374C62.9555 39.4374 64.4479 37.924 64.4479 36.0571C64.4479 34.1902 62.9555 32.6768 61.1146 32.6768C59.2736 32.6768 57.7812 34.1902 57.7812 36.0571C57.7812 37.924 59.2736 39.4374 61.1146 39.4374Z" fill="#FFCC4D"/>
<path d="M27.7865 34.9296C29.6274 34.9296 31.1198 33.4162 31.1198 31.5493C31.1198 29.6824 29.6274 28.1689 27.7865 28.1689C25.9455 28.1689 24.4531 29.6824 24.4531 31.5493C24.4531 33.4162 25.9455 34.9296 27.7865 34.9296Z" fill="#FFCC4D"/>
</svg>
