<svg width="104" height="64" viewBox="0 0 104 64" fill="none" xmlns="http://www.w3.org/2000/svg">
<rect x="0.5" y="0.5" width="103" height="63" rx="31.5" fill="white"/>
<path d="M39.2016 24C37.6016 24 37.6016 25.6 37.6016 25.6V42.4C37.6016 42.4 37.6016 44 39.2016 44H64.8016C66.4016 44 66.4016 42.4 66.4016 42.4V25.6C66.4016 25.6 66.4016 24 64.8016 24H39.2016Z" fill="#5C913B"/>
<path d="M39.2016 20C37.6016 20 37.6016 21.6 37.6016 21.6V37.6C37.6016 37.6 37.6016 39.2 39.2016 39.2H64.8016C66.4016 39.2 66.4016 37.6 66.4016 37.6V21.6C66.4016 21.6 66.4016 20 64.8016 20H39.2016Z" fill="#A7D28B"/>
<path d="M52.2 34.4C55.0719 34.4 57.4 32.0719 57.4 29.2C57.4 26.3281 55.0719 24 52.2 24C49.3281 24 47 26.3281 47 29.2C47 32.0719 49.3281 34.4 52.2 34.4Z" fill="#77B255"/>
<path d="M64.0047 38.0002H40.0047C39.3431 38.0002 38.8047 37.4618 38.8047 36.8002V22.4002C38.8047 21.7386 39.3431 21.2002 40.0047 21.2002H64.0047C64.6663 21.2002 65.2047 21.7386 65.2047 22.4002V36.8002C65.2047 37.4618 64.6663 38.0002 64.0047 38.0002ZM40.0047 22.0002C39.7847 22.0002 39.6047 22.1794 39.6047 22.4002V36.8002C39.6047 37.0202 39.7847 37.2002 40.0047 37.2002H64.0047C64.2247 37.2002 64.4047 37.0202 64.4047 36.8002V22.4002C64.4047 22.1794 64.2247 22.0002 64.0047 22.0002H40.0047Z" fill="#5C913B"/>
<path d="M48.8047 20H55.2047V39.2496H48.8047V20Z" fill="#FFE8B6"/>
<path d="M48.8047 39.2002H55.2047V44.0002H48.8047V39.2002Z" fill="#FFAC33"/>
<rect x="0.5" y="0.5" width="103" height="63" rx="31.5" stroke="#E0E8EB"/>
</svg>
