<svg width="66" height="80" viewBox="0 0 66 80" fill="none" xmlns="http://www.w3.org/2000/svg">
<path d="M35.9828 62.0695V56.4581C37.6144 55.4533 38.7108 53.6655 38.7108 51.6166C38.7108 47.2841 33.8813 44.0869 29.3129 47.0884C28.9735 47.3102 28.6863 47.5973 28.4644 47.9366C26.2194 51.3818 27.4724 54.8791 30.0177 56.4581V62.0695H35.9828Z" fill="#FFD9CE"/>
<path d="M24.864 12.7674C35.2278 6.1903 46.1399 13.5243 46.1399 23.3769H56.3863C56.3863 6.5557 38.5171 -6.18091 20.7654 3.16275C13.8605 6.80364 9.63146 14.0854 9.63146 21.8892V32.0028H5.03691C2.583 32.0028 0.585938 33.9994 0.585938 36.4528V71.7525H65.4187V36.4528C65.4187 33.9994 63.4347 32.0028 60.9678 32.0028H56.3732H46.1268H19.8778V21.9284C19.8778 18.2222 21.7444 14.751 24.864 12.7674ZM28.4665 47.9497C28.6884 47.6104 28.9756 47.3233 29.3149 47.1014C33.8834 44.0869 38.7129 47.2972 38.7129 51.6297C38.7129 53.6916 37.6165 55.4664 35.9849 56.4712V62.0826H30.0198V56.4712C27.4615 54.8791 26.2215 51.3818 28.4665 47.9497Z" fill="#065373"/>
<path d="M7.69909 80.0002H58.3044C61.6198 80.0002 64.4131 77.7165 65.1963 74.6367H0.820312C1.60347 77.7165 4.3837 80.0002 7.69909 80.0002Z" fill="#065373"/>
<path d="M0.585938 72.8746C0.585938 73.4879 0.664254 74.0752 0.820886 74.6363H65.1968C65.3404 74.0752 65.4187 73.4879 65.4187 72.8746V71.7393H0.585938V72.8746Z" fill="#02C39A"/>
</svg>
