<svg width="320" height="350" viewBox="0 0 320 350" fill="none" xmlns="http://www.w3.org/2000/svg">
<g clip-path="url(#clip0_4790_66126)">
<path d="M175.277 237.787H102.09V294.363H175.277V237.787Z" fill="#EBEBEB"/>
<path d="M156.875 293.941C156.805 293.941 156.664 281.329 156.664 265.758C156.664 250.188 156.734 237.576 156.875 237.576C157.015 237.576 157.085 250.188 157.085 265.758C157.085 281.329 157.015 293.941 156.875 293.941Z" fill="#E0E0E0"/>
<path d="M169.025 281.47H163.406V287.811H169.025V281.47Z" fill="#FAFAFA"/>
<path d="M132.714 237.929H124.426V249.977H132.714V237.929Z" fill="#E0E0E0"/>
<path d="M132.714 282.104H124.426V294.152H132.714V282.104Z" fill="#E0E0E0"/>
<path d="M307.955 223.555H215.734V294.926H307.955V223.555Z" fill="#EBEBEB"/>
<path d="M284.847 294.433C284.777 294.433 284.637 278.51 284.637 258.924C284.637 239.267 284.707 223.414 284.847 223.414C284.918 223.414 285.058 239.337 285.058 258.924C285.058 278.51 284.988 294.433 284.847 294.433Z" fill="#E0E0E0"/>
<path d="M300.16 278.722H293.066V286.754H300.16V278.722Z" fill="#FAFAFA"/>
<path d="M254.364 223.767H243.898V238.985H254.364V223.767Z" fill="#E0E0E0"/>
<path d="M254.364 279.497H243.898V294.715H254.364V279.497Z" fill="#E0E0E0"/>
<path d="M41.9668 225.669C45.6894 223.767 50.1143 223.485 54.2583 224.19C56.5059 224.542 58.8237 225.246 60.2986 226.937C61.8439 228.628 62.1248 231.587 60.3689 232.996C59.3153 233.842 57.9106 233.983 56.5761 233.983C53.3452 233.912 49.7631 233.349 47.1644 235.322C45.6894 236.449 44.7061 238.281 42.9501 238.844C41.1942 239.408 39.2978 238.351 38.3847 236.801C37.4717 235.251 37.4717 233.278 37.8931 231.517C37.7526 231.446 38.2443 227.642 41.9668 225.669Z" fill="#EBEBEB"/>
<path d="M33.4708 209.112C35.7184 212.353 40.2136 211.296 42.2504 209.323C44.2873 207.35 45.2004 204.462 45.973 201.643C47.7991 195.373 49.6253 188.75 48.2908 182.338C47.8694 180.436 47.167 178.534 45.8325 177.054C44.498 175.645 42.3909 174.8 40.5647 175.293C38.3172 175.857 36.9124 178.111 35.9291 180.154C32.9792 186.284 31.434 193.118 31.3637 199.952C31.2935 203.123 31.6447 206.505 33.4708 209.112Z" fill="#EBEBEB"/>
<path d="M27.1478 213.832C29.6061 210.873 30.0978 206.575 28.974 202.912C27.8502 199.248 25.3919 196.078 22.5122 193.471C19.1408 190.441 15.2075 188.116 10.9231 186.637C9.23741 186.073 7.48149 185.58 5.72557 185.721C3.96965 185.862 2.21373 186.777 1.37088 188.398C0.176857 190.723 1.30065 193.541 2.56491 195.866C4.81249 199.953 7.34102 203.828 10.1505 207.491C12.3981 210.451 15.0671 213.339 18.5087 214.678C21.9503 216.017 25.6026 215.876 27.4288 213.41" fill="#EBEBEB"/>
<path d="M33.2578 258.43C33.328 258.43 33.3983 257.937 33.4685 256.951C33.5388 255.894 33.6792 254.485 33.8899 252.864C34.1007 251.173 34.3114 249.13 34.803 246.946C35.2947 244.762 35.9971 242.366 36.9804 239.9C37.9637 237.505 39.1577 235.321 40.5624 233.559C41.9672 231.798 43.5826 230.53 45.0576 229.825C46.6028 229.05 47.9373 228.768 48.8504 228.627C49.7635 228.557 50.3254 228.487 50.3254 228.416C50.3254 228.346 49.7635 228.346 48.8504 228.416C47.8671 228.487 46.4623 228.698 44.9171 229.473C43.3017 230.178 41.616 231.446 40.141 233.278C38.6661 235.039 37.4018 237.294 36.4185 239.759C35.4352 242.225 34.7328 244.621 34.3114 246.875C33.8899 249.13 33.6792 251.173 33.5388 252.935C33.3983 254.626 33.3281 256.035 33.3281 257.021C33.2578 257.937 33.2578 258.43 33.2578 258.43Z" fill="#E0E0E0"/>
<path d="M33.5389 255.331C33.5389 255.331 33.5389 255.119 33.6091 254.626C33.6091 254.133 33.6091 253.428 33.6091 252.653C33.6091 250.962 33.6091 248.496 33.6794 245.396C33.8198 239.267 34.3817 232.714 35.3651 223.414C36.3484 214.678 37.6126 204.532 38.9471 197.909C39.2281 196.43 39.509 195.091 39.79 193.893C40.0709 192.696 40.2816 191.709 40.4923 190.864C40.7031 190.089 40.8435 189.455 40.984 188.961C41.0542 188.539 41.1245 188.257 41.1245 188.257C41.1245 188.257 41.0542 188.468 40.9138 188.891C40.7733 189.384 40.5626 190.018 40.3519 190.793C40.0709 191.639 39.8602 192.625 39.509 193.823C39.2281 195.021 38.8769 196.359 38.5257 197.839C37.1912 203.828 35.7865 212.212 34.7329 221.512C33.7496 230.812 33.2579 239.267 33.1877 245.396C33.1175 248.496 33.1877 250.962 33.3282 252.653C33.3984 253.428 33.3984 254.133 33.4687 254.626C33.5389 255.119 33.5389 255.331 33.5389 255.331Z" fill="#E0E0E0"/>
<path d="M33.6108 238.985C33.681 238.985 33.681 238.28 33.6108 236.941C33.5406 235.603 33.3298 233.7 32.9787 231.375C32.5572 229.05 32.0656 226.232 31.1525 223.273C30.8013 221.864 29.8882 218.623 27.7811 213.62C24.9717 206.927 21.1789 201.432 17.8075 198.05C17.0349 197.134 16.1921 196.5 15.4897 195.866C15.1385 195.584 14.7873 195.232 14.5064 195.02C14.1552 194.809 13.8742 194.597 13.5933 194.386C12.4695 193.611 11.9076 193.259 11.8374 193.259C11.7671 193.4 14.2957 194.879 17.5266 198.332C20.7574 201.784 24.4098 207.209 27.2192 213.832C28.7645 217.425 29.8882 220.666 30.6608 223.343C31.5739 226.302 32.1358 229.05 32.5572 231.375C32.9787 233.7 33.2596 235.603 33.4001 236.871C33.4703 238.28 33.5406 238.985 33.6108 238.985Z" fill="#E0E0E0"/>
<path d="M16.7539 265.335L18.4396 287.74H47.0962L48.7819 265.335H16.7539Z" fill="#EBEBEB"/>
<path d="M52.2206 256.458H14.0117V265.265H52.2206V256.458Z" fill="#EBEBEB"/>
<path d="M14.0117 286.895V289.36H15.7676H51.5182V286.895H14.0117Z" fill="#E0E0E0"/>
<path d="M17.5255 293.377L15.7695 289.079H50.1856L48.1487 293.377H17.5255Z" fill="#E0E0E0"/>
<path d="M48.2204 272.663C48.2204 272.663 48.1502 272.733 48.0799 272.874C47.9394 273.015 47.799 273.226 47.6585 273.438C47.2371 273.931 46.6752 274.706 45.9728 275.551L45.9026 275.622L45.8323 275.551C44.7788 274.072 43.3741 272.169 41.6884 269.844H41.8991C40.7051 271.606 39.3003 273.508 37.8253 275.622L37.6849 275.833L37.5444 275.692C36.0694 273.931 34.454 271.958 32.7683 269.985H33.0492C32.979 270.056 32.9088 270.197 32.7683 270.338C31.2933 272.24 29.8183 274.001 28.4838 275.763L28.3434 275.974L28.2029 275.763C26.7279 273.719 25.3934 271.747 24.1292 269.985H24.3399C22.3732 272.24 20.6875 274.213 19.353 275.692L19.2828 275.763L19.2126 275.622C18.5804 274.494 18.0185 273.649 17.6674 273.015C17.5269 272.733 17.3864 272.522 17.2459 272.31C17.1757 272.169 17.1055 272.099 17.1055 272.028C17.1055 272.028 17.1757 272.099 17.2459 272.24C17.3864 272.451 17.5269 272.663 17.6674 272.944C18.0888 273.578 18.6507 274.424 19.2828 275.551H19.1423C20.4066 274.072 22.0923 272.099 24.0589 269.774L24.1994 269.633L24.3399 269.774C25.6041 271.535 26.9386 273.438 28.4136 275.481H28.1327C29.4672 273.79 30.9421 271.958 32.4171 270.056C32.4873 269.915 32.6278 269.844 32.6981 269.703L32.8385 269.562L32.979 269.703C34.6647 271.747 36.2801 273.649 37.7551 275.41H37.4742C38.9491 273.367 40.3539 271.394 41.5479 269.703L41.6884 269.562L41.8288 269.703C43.4443 272.028 44.849 274.001 45.8323 275.481H45.6919C46.3942 274.565 47.0264 273.931 47.4478 273.367C47.6585 273.156 47.799 272.944 47.9395 272.803C48.1502 272.733 48.2204 272.663 48.2204 272.663Z" fill="#F5F5F5"/>
<path d="M49.1333 265.194C49.1333 265.264 41.9692 265.405 33.0491 265.405C24.1992 265.405 16.9648 265.335 16.9648 265.194C16.9648 265.123 24.129 264.982 33.0491 264.982C41.9692 264.982 49.1333 265.053 49.1333 265.194Z" fill="#F5F5F5"/>
<path d="M250.564 10.9751L244.664 11.0068L244.821 40.3868L250.721 40.3551L250.564 10.9751Z" fill="#E0E0E0"/>
<path d="M208.952 11.0207L193.711 11.1025L193.797 27.3073L209.039 27.2255L208.952 11.0207Z" fill="#EBEBEB"/>
<path d="M224.12 10.9504L208.879 11.0322L208.965 27.237L224.207 27.1552L224.12 10.9504Z" fill="#F5F5F5"/>
<path d="M193.68 15.5704C203.794 15.6408 213.978 15.5704 224.092 15.4295C224.303 15.4295 224.303 15.0772 224.092 15.0772C213.978 15.0067 203.794 15.0772 193.68 15.2886C193.539 15.2886 193.539 15.5704 193.68 15.5704Z" fill="#E0E0E0"/>
<path d="M211.837 26.9801L184.164 27.1289L184.235 40.3746L211.908 40.2258L211.837 26.9801Z" fill="#EBEBEB"/>
<path d="M239.439 26.8396L211.766 26.9883L211.836 40.2339L239.51 40.0852L239.439 26.8396Z" fill="#F5F5F5"/>
<path d="M184.195 30.7891C202.597 31.0005 221.07 30.7891 239.472 30.5073C239.682 30.5073 239.682 30.155 239.472 30.155C221.07 30.0846 202.597 30.0846 184.195 30.5073C184.055 30.5073 184.055 30.7891 184.195 30.7891Z" fill="#E0E0E0"/>
<path d="M281.193 40.3711H173.871V45.0916H281.193V40.3711Z" fill="#E0E0E0"/>
<path d="M195.784 42.626H191.43V58.7603H195.784V42.626Z" fill="#E0E0E0"/>
<path d="M260.753 42.626H256.398V58.7603H260.753V42.626Z" fill="#E0E0E0"/>
<path d="M256.294 -0.0160838L250.395 0.015625L250.611 40.4572L256.51 40.4254L256.294 -0.0160838Z" fill="#EBEBEB"/>
<path d="M265.514 7.51438L256.383 7.56348L256.558 40.3253L265.689 40.2762L265.514 7.51438Z" fill="#F5F5F5"/>
<path d="M265.459 13.8099C265.459 13.8803 263.422 13.9508 260.894 13.9508C258.365 13.9508 256.328 13.8803 256.328 13.8099C256.328 13.7394 258.365 13.6689 260.894 13.6689C263.422 13.6689 265.459 13.7394 265.459 13.8099Z" fill="#E0E0E0"/>
<path d="M265.459 12.471C265.459 12.5414 263.422 12.6119 260.894 12.6119C258.365 12.6119 256.328 12.5414 256.328 12.471C256.328 12.4005 258.365 12.3301 260.894 12.3301C263.422 12.3301 265.459 12.4005 265.459 12.471Z" fill="#E0E0E0"/>
<path d="M265.459 35.3687C265.459 35.4392 263.422 35.5097 260.894 35.5097C258.365 35.5097 256.328 35.4392 256.328 35.3687C256.328 35.2983 258.365 35.2278 260.894 35.2278C263.422 35.1574 265.459 35.2278 265.459 35.3687Z" fill="#E0E0E0"/>
<path d="M265.459 33.9593C265.459 34.0297 263.422 34.1002 260.894 34.1002C258.365 34.1002 256.328 34.0297 256.328 33.9593C256.328 33.8888 258.365 33.8184 260.894 33.8184C263.422 33.8184 265.459 33.8888 265.459 33.9593Z" fill="#E0E0E0"/>
<path d="M261.035 30.9304C260.965 30.9304 260.895 27.619 260.895 23.5326C260.895 19.4462 260.965 16.1348 261.035 16.1348C261.105 16.1348 261.175 19.4462 261.175 23.5326C261.175 27.6895 261.105 30.9304 261.035 30.9304Z" fill="#E0E0E0"/>
<path d="M275.505 15.5703H265.531V40.3002H275.505V15.5703Z" fill="#EBEBEB"/>
<path d="M253.311 8.59574C254.242 8.59574 254.996 7.83868 254.996 6.9048C254.996 5.97092 254.242 5.21387 253.311 5.21387C252.38 5.21387 251.625 5.97092 251.625 6.9048C251.625 7.83868 252.38 8.59574 253.311 8.59574Z" fill="#E0E0E0"/>
<path d="M253.8 11.5547H252.746V35.5801H253.8V11.5547Z" fill="#E0E0E0"/>
<path d="M311.117 294.575C311.117 294.645 243.619 294.786 160.388 294.786C77.0875 294.786 9.58984 294.716 9.58984 294.575C9.58984 294.504 77.0875 294.363 160.388 294.363C243.619 294.363 311.117 294.434 311.117 294.575Z" fill="#263238"/>
<path d="M89.5898 36.002C92.891 40.0179 94.7171 45.2316 94.6469 50.4454C94.6469 53.4045 94.085 56.7159 95.7707 59.1114C97.1052 60.9432 99.4932 61.8592 100.547 63.8319C101.811 66.2274 100.757 69.257 101.53 71.8639C102.654 75.5276 106.938 77.0776 109.467 79.9663C111.644 82.4322 112.487 86.0959 111.574 89.3369C110.661 92.5778 108.132 95.2551 104.972 96.312C103.286 96.8756 101.39 97.0165 99.7742 96.2415C98.0183 95.396 96.9647 93.6346 96.1219 91.8733C94.4362 88.4914 79.546 70.1025 78.7031 66.4388" fill="#263238"/>
<path d="M78.7716 31.6337C72.661 30.6473 66.8313 34.7337 64.3028 40.2997C61.7742 45.9361 61.704 52.2772 61.4933 58.4772C61.2826 64.6773 60.8612 71.0888 57.7005 76.4434C55.7339 79.8253 52.6434 82.7844 52.1518 86.6595C51.7304 90.1118 53.4863 93.6346 52.9244 97.0869C52.4327 100.117 50.1149 102.723 50.1852 105.753C50.3256 109.417 54.0482 112.164 57.7005 112.305C61.3528 112.376 64.7944 110.473 67.6741 108.219C72.3098 104.485 76.1026 99.6938 78.6311 94.2687" fill="#263238"/>
<path d="M68.7287 46.2178C67.9561 39.8063 72.5917 33.8881 79.0535 33.254C85.1641 32.6903 90.6426 37.2699 91.5557 43.3996C92.3283 48.7542 93.0306 54.1793 93.0306 56.152C92.9604 62.0703 89.5188 64.3953 88.114 65.0999C87.7629 65.2408 86.92 65.4522 86.5688 65.5226C86.5688 65.5226 86.4986 65.5226 86.5688 65.5931L87.9033 72.4273C88.4652 76.866 86.0069 80.882 81.582 81.5161C77.1571 82.1502 73.6452 78.7683 72.9429 74.2591L68.7287 46.2178Z" fill="#FFBE9D"/>
<path d="M90.4316 46.0062C90.3613 46.1471 89.5887 45.7244 88.5352 45.8653C87.5518 46.0062 86.8495 46.6403 86.7792 46.4994C86.709 46.429 86.7792 46.2176 87.0602 45.9358C87.3411 45.654 87.8328 45.3721 88.4649 45.2312C89.0971 45.1608 89.659 45.3017 90.0101 45.513C90.2911 45.7244 90.4316 45.9358 90.4316 46.0062Z" fill="#263238"/>
<path d="M81.5136 48.1205C81.4434 48.2614 80.6005 47.8387 79.6172 47.9796C78.6339 48.1205 77.9315 48.7546 77.8613 48.6137C77.791 48.5432 77.8613 48.3319 78.1422 48.05C78.4232 47.7682 78.9148 47.4864 79.547 47.3455C80.1791 47.275 80.741 47.4159 81.0922 47.6273C81.4433 47.9091 81.5838 48.05 81.5136 48.1205Z" fill="#263238"/>
<path d="M85.1656 53.545C85.1656 53.4745 85.7275 53.2631 86.781 52.9813C87.062 52.9109 87.2727 52.8404 87.2727 52.629C87.2727 52.4177 87.1322 52.2063 86.9917 51.9245C86.6405 51.3608 86.2894 50.7267 85.9382 50.0926C84.4632 47.4858 83.4096 45.3017 83.4799 45.2312C83.6204 45.1607 84.8144 47.2744 86.2894 49.8813C86.6405 50.5154 86.9917 51.1495 87.2727 51.7131C87.4131 51.9949 87.6239 52.2768 87.5536 52.6995C87.4834 52.9109 87.3429 53.0518 87.2024 53.1222C87.062 53.1927 86.9215 53.1927 86.781 53.2631C85.7977 53.4745 85.1656 53.6154 85.1656 53.545Z" fill="#263238"/>
<path d="M86.5684 65.4519C86.5684 65.4519 82.7756 66.3679 77.5078 64.1133C77.5078 64.1133 79.7554 69.0452 86.9196 67.2838L86.5684 65.4519Z" fill="#EB996E"/>
<path d="M81.0209 45.5137C80.9506 45.7955 79.9673 45.7955 78.7733 46.1478C77.5793 46.4296 76.7364 46.9228 76.5257 46.7114C76.4555 46.5705 76.5959 46.2887 76.8769 46.0069C77.2281 45.6546 77.79 45.3728 78.4923 45.1614C79.1947 44.9501 79.8268 45.0205 80.3185 45.091C80.8102 45.2319 81.0209 45.3728 81.0209 45.5137Z" fill="#263238"/>
<path d="M89.5881 43.7515C89.4476 44.0333 88.7453 43.8924 87.9024 43.9629C87.0596 44.0333 86.4274 44.3151 86.2167 44.1038C86.1465 44.0333 86.2167 43.7515 86.4977 43.4697C86.7786 43.1878 87.2703 42.9765 87.8322 42.906C88.3941 42.8356 88.956 42.9765 89.2369 43.1878C89.5179 43.3992 89.6583 43.6106 89.5881 43.7515Z" fill="#263238"/>
<path d="M79.3332 49.4589C79.4034 49.8816 79.8249 50.1634 80.2463 50.1634C80.6677 50.093 81.0189 49.6703 80.9487 49.2475C80.8784 48.8248 80.457 48.543 80.0356 48.543C79.6142 48.6134 79.263 49.0362 79.3332 49.4589Z" fill="#263238"/>
<path d="M88.1848 47.4862C88.255 47.909 88.6764 48.1908 89.0979 48.1908C89.5193 48.1203 89.8705 47.6976 89.8002 47.2749C89.73 46.8521 89.3086 46.5703 88.8871 46.5703C88.4657 46.7112 88.1145 47.0635 88.1848 47.4862Z" fill="#263238"/>
<path d="M86.7099 55.448C86.0778 55.2366 85.5159 55.5889 85.235 56.0821C84.954 56.5753 85.0243 57.2094 85.4457 57.5617C85.7969 57.9139 86.4992 57.9844 86.9207 57.6321C87.2016 57.4208 87.3421 57.0685 87.4123 56.6457C87.4123 56.2935 87.4123 55.9412 87.2016 55.6594C86.9909 55.3775 86.6397 55.2366 86.2885 55.3775" fill="#EB996E"/>
<path d="M90.8536 38.609C90.362 36.3545 88.887 34.4522 86.9906 33.184C85.3751 32.0567 83.549 31.3521 81.5824 31.2817C79.686 31.2112 77.6491 31.8453 76.3146 33.184C75.261 34.1703 74.7694 35.5794 74.6991 36.9886L74.8396 36.0022C74.5587 36.7772 74.5587 37.6931 74.8396 38.4681C74.9801 38.8909 75.1908 39.3136 75.4015 39.7363C75.8932 40.9341 76.8765 41.9909 78.0003 42.625C78.5622 42.9068 79.1241 43.1182 79.7562 43.0477C80.3883 43.0477 80.9502 42.7659 81.3716 42.2727C81.9335 41.5682 81.8633 40.5818 81.7228 39.7363C82.2145 40.5818 82.7764 41.4273 83.6192 41.9204C84.4621 42.4136 85.6561 42.4136 86.2882 41.6386C86.8501 40.8636 86.6394 39.8068 86.2882 38.9613C86.8501 39.8068 87.6227 40.4409 88.4656 40.8636C88.9572 41.075 89.5191 41.2159 90.0108 41.0045C90.4322 40.7932 90.7131 40.3704 90.8536 39.9477C90.9941 39.525 90.9239 39.0318 90.8536 38.609Z" fill="#263238"/>
<path d="M85.7242 40.441C85.6539 40.441 85.6539 39.5956 85.373 38.3273C85.092 37.0591 84.4599 35.2273 82.9147 33.8886C82.1421 33.2545 81.2992 32.7614 80.4564 32.55C79.6136 32.3386 78.8409 32.3386 78.2088 32.4795C76.9446 32.7614 76.3124 33.325 76.2422 33.325C76.2422 33.325 76.3827 33.1136 76.6636 32.9023C76.9446 32.6909 77.4362 32.4091 78.1386 32.2682C78.7707 32.1273 79.6136 32.0568 80.5266 32.2682C81.4397 32.4795 82.3528 32.9727 83.1254 33.6068C84.7408 35.0159 85.373 36.9182 85.5837 38.2569C85.7242 38.9614 85.7242 39.4546 85.7242 39.8774C85.7944 40.2296 85.7944 40.441 85.7242 40.441Z" fill="#455A64"/>
<path d="M150.415 122.593L123.373 111.883C123.373 111.883 109.537 93.7058 109.818 93.3535L100.125 103.992L114.243 123.156L146.973 130.836L162.495 130.977C161.301 124.918 150.415 122.593 150.415 122.593Z" fill="#FFBE9D"/>
<path d="M91.5589 70.6659L87.9066 69.2568L72.033 71.3V74.1183L71.6116 74.1887C71.6116 74.1887 66.695 75.1046 61.8487 77.9933C56.019 81.5161 52.9988 88.2094 54.1226 94.9731C54.7548 98.9891 56.019 103.921 58.4071 106.739C63.0427 112.164 67.2569 105.471 67.2569 105.471C67.2569 105.471 70.1366 112.094 69.9962 115.264C69.8557 117.871 68.7319 123.367 68.3105 125.058C68.2402 125.34 68.4509 125.621 68.7319 125.692L102.235 131.892L102.375 123.649L101.322 89.8299L99.8468 76.7251C99.8468 76.5842 99.8468 70.3137 91.5589 70.6659Z" fill="#065373"/>
<path d="M99.2812 74.4004L112.064 92.9302L101.81 105.542L99.2812 74.4004Z" fill="#065373"/>
<path d="M102.022 113.362C102.022 113.362 101.952 112.939 101.952 112.164C101.952 111.319 101.952 110.262 101.882 108.923C101.812 106.175 101.671 102.371 101.109 98.2139C100.547 94.0571 99.7748 90.3229 99.1426 87.6456C98.8617 86.3774 98.5807 85.2501 98.37 84.4751C98.2295 83.7001 98.0891 83.2773 98.1593 83.2773C98.1593 83.2773 98.2998 83.7001 98.5105 84.4046C98.7212 85.1092 99.0021 86.2365 99.3533 87.5751C100.056 90.2525 100.899 93.9866 101.39 98.1435C101.952 102.3 102.022 106.105 102.022 108.853C102.022 110.262 102.022 111.319 101.952 112.094C102.093 112.939 102.093 113.362 102.022 113.362Z" fill="#263238"/>
<path d="M70.6265 85.2503C70.6265 85.3207 69.6431 85.3207 68.0979 85.3912C66.5527 85.4616 64.3754 85.673 62.0576 86.1662C59.7397 86.6594 57.7029 87.2935 56.2279 87.8571C54.7529 88.4208 53.9101 88.7731 53.8398 88.7731C53.8398 88.7731 54.0506 88.6322 54.4017 88.4208C54.8232 88.2094 55.3851 87.9276 56.0874 87.6458C57.5624 87.0117 59.5993 86.3071 61.9171 85.8139C64.2349 85.3207 66.4122 85.1798 68.0277 85.1094C68.8003 85.1094 69.4324 85.1094 69.8538 85.1798C70.3455 85.1798 70.6265 85.1798 70.6265 85.2503Z" fill="#FAFAFA"/>
<path d="M100.195 93.7051C100.195 93.7756 99.563 93.9165 98.5796 94.0574C97.5963 94.1983 96.1916 94.3392 94.6464 94.4097C93.1012 94.4801 91.6964 94.4097 90.7131 94.3392C89.7298 94.2688 89.0977 94.1279 89.0977 94.1279C89.0977 94.0574 89.7298 94.0574 90.7131 94.1279C91.6964 94.1279 93.1012 94.1279 94.6464 94.1279C96.1916 94.0574 97.5261 93.987 98.5094 93.9165C99.563 93.7051 100.195 93.6347 100.195 93.7051Z" fill="#FAFAFA"/>
<path d="M106.098 85.3209C106.168 85.3914 105.044 86.5187 103.358 87.5755C101.673 88.6324 100.198 89.1256 100.127 88.9846C100.057 88.9142 101.532 88.2801 103.148 87.2233C104.763 86.2369 106.027 85.2505 106.098 85.3209Z" fill="#FAFAFA"/>
<path d="M100.898 76.7246C100.968 76.7951 99.4227 78.1338 97.1751 79.1201C94.9275 80.1065 92.8906 80.2474 92.8906 80.177C92.8906 80.0361 94.8573 79.7542 97.0346 78.8383C99.2822 77.8519 100.827 76.6542 100.898 76.7246Z" fill="#FAFAFA"/>
<path d="M101.601 108.078C101.601 108.078 101.39 108.219 100.969 108.43C100.547 108.642 99.9154 108.923 99.0725 109.205C97.4571 109.769 95.1393 110.473 92.5405 110.896C89.9417 111.319 87.5537 111.319 85.7978 111.248C84.9549 111.178 84.2525 111.178 83.7609 111.108C83.2692 111.037 82.9883 110.967 82.9883 110.967C82.9883 110.896 84.0418 110.967 85.7978 111.037C87.4834 111.037 89.8715 110.967 92.4703 110.544C95.069 110.121 97.3166 109.558 98.9321 108.994C100.618 108.43 101.601 108.008 101.601 108.078Z" fill="#FAFAFA"/>
<path d="M101.882 117.59C101.882 117.59 101.812 117.66 101.601 117.731C101.391 117.872 101.04 118.013 100.688 118.153C99.9158 118.506 98.792 118.999 97.317 119.563C95.9123 120.126 94.1564 120.69 92.1897 121.183C90.2231 121.676 88.0458 122.169 85.7279 122.522C83.4101 122.874 81.1625 123.085 79.1959 123.156C77.159 123.226 75.3329 123.226 73.7877 123.156C72.2425 123.085 71.0484 122.944 70.2056 122.874C69.7842 122.804 69.5032 122.804 69.2223 122.733C69.0116 122.733 68.8711 122.663 68.8711 122.663C68.8711 122.663 69.0116 122.663 69.2223 122.663C69.5032 122.663 69.7842 122.733 70.2056 122.733C71.0484 122.804 72.3127 122.874 73.7877 122.944C75.3329 123.015 77.159 122.944 79.1257 122.874C81.1625 122.733 83.3399 122.522 85.6577 122.169C87.9755 121.817 90.0826 121.324 92.0493 120.831C94.0159 120.338 95.7016 119.774 97.1765 119.281C98.5813 118.788 99.7753 118.365 100.548 118.013C100.899 117.872 101.18 117.731 101.461 117.66C101.742 117.66 101.882 117.59 101.882 117.59Z" fill="#FAFAFA"/>
<path d="M40.213 267.379L36.4203 284.57L29.537 297.323C29.0454 298.238 29.3966 299.366 30.3799 299.859C30.9418 300.07 31.5037 300.07 31.9953 299.788C35.2262 297.957 47.026 290.982 47.2367 289.713C47.4474 288.234 52.4343 271.818 52.4343 271.818L40.213 267.379Z" fill="#F46036"/>
<g opacity="0.6">
<path d="M30.3789 299.859L47.5167 288.586L47.306 289.29C47.1655 289.925 46.8143 290.488 46.2524 290.841C44.8477 291.827 40.9144 294.575 31.9944 299.788C31.5027 300.07 30.8706 300.141 30.3789 299.859Z" fill="white"/>
</g>
<g opacity="0.6">
<path d="M45.3402 282.175C44.8485 282.386 44.5676 282.95 44.708 283.513C44.8485 284.007 45.4806 284.359 45.9723 284.147C46.464 283.936 46.8854 283.231 46.6044 282.738C46.3937 282.245 45.6211 281.893 45.1997 282.245" fill="white"/>
</g>
<path d="M36.0709 293.307C35.9304 293.307 35.7899 292.321 34.8769 291.616C34.034 290.841 32.9805 290.841 32.9805 290.771C32.9805 290.7 33.1912 290.63 33.6126 290.7C34.034 290.771 34.5959 290.911 35.0876 291.334C35.5792 291.757 35.8602 292.25 36.0007 292.673C36.1411 293.096 36.1411 293.307 36.0709 293.307Z" fill="#263238"/>
<path d="M34.3132 295.35C34.243 295.421 33.8216 294.716 32.9787 294.223C32.1359 293.73 31.3633 293.73 31.3633 293.589C31.3633 293.518 32.2764 293.307 33.1894 293.871C34.1025 294.434 34.3835 295.28 34.3132 295.35Z" fill="#263238"/>
<path d="M39.0891 290.981C39.0188 291.052 38.3867 289.995 37.1224 289.15C35.9284 288.304 34.7344 288.022 34.7344 287.952C34.7344 287.881 36.0689 287.952 37.3331 288.868C38.6676 289.713 39.1593 290.911 39.0891 290.981Z" fill="#263238"/>
<path d="M40.6359 285.838C40.5657 285.909 39.7229 285.275 38.5288 284.922C37.3348 284.57 36.2812 284.641 36.2812 284.5C36.2812 284.429 37.3348 284.147 38.6693 284.5C39.9336 284.922 40.7062 285.768 40.6359 285.838Z" fill="#263238"/>
<path d="M41.8974 280.765C41.8272 280.836 40.9843 280.061 39.7201 279.779C38.3856 279.497 37.332 279.92 37.332 279.779C37.332 279.708 37.5427 279.567 38.0344 279.427C38.4558 279.286 39.1582 279.215 39.8606 279.356C40.5629 279.497 41.1248 279.849 41.476 280.131C41.757 280.483 41.9677 280.765 41.8974 280.765Z" fill="#263238"/>
<path d="M40.0005 278.863C40.0005 278.863 40.0005 278.652 40.141 278.229C40.2815 277.806 40.5624 277.243 41.0541 276.679C41.335 276.397 41.616 276.045 42.1076 275.904C42.3886 275.834 42.7398 275.974 42.8802 276.256C43.0207 276.538 43.0207 276.82 42.9505 277.102C42.6695 278.159 41.4755 279.004 40.2112 278.863C38.947 278.722 38.0339 277.736 37.7529 276.679C37.6827 276.397 37.6827 276.115 37.8934 275.834C38.1041 275.552 38.4553 275.552 38.7363 275.622C39.2279 275.834 39.4386 276.186 39.7196 276.468C40.2112 277.102 40.4219 277.665 40.5624 278.088C40.7029 278.511 40.7029 278.722 40.7029 278.722C40.6327 278.722 40.4922 277.806 39.5089 276.609C39.2982 276.327 39.0172 275.974 38.666 275.904C38.5255 275.834 38.3148 275.904 38.2446 275.974C38.1744 276.115 38.1041 276.327 38.1744 276.538C38.3851 277.384 39.2279 278.299 40.3517 278.44C41.4053 278.581 42.4588 277.877 42.6695 276.961C42.7398 276.749 42.7398 276.538 42.6695 276.397C42.5993 276.256 42.4588 276.186 42.2481 276.186C41.8969 276.256 41.5457 276.538 41.335 276.82C40.2112 277.877 40.0708 278.863 40.0005 278.863Z" fill="#263238"/>
<g opacity="0.3">
<path d="M39.7921 269.281L38.9492 273.227L51.3811 275.27L52.4347 271.818L40.2135 267.379L39.7921 269.281Z" fill="black"/>
</g>
<path d="M95.77 273.72L94.7164 287.459C94.7164 287.459 108.342 293.095 108.342 295.702L81.6523 294.645L82.3547 273.156L95.77 273.72Z" fill="#F46036"/>
<g opacity="0.6">
<path d="M86.5695 286.05C86.0779 286.191 85.6564 286.754 85.7969 287.248C85.8672 287.741 86.4993 288.164 86.9909 288.023C87.4826 287.882 87.9743 287.248 87.8338 286.754C87.6933 286.261 86.9909 285.839 86.4993 286.05" fill="white"/>
</g>
<g opacity="0.6">
<path d="M81.7227 294.715L81.8631 292.531L107.359 294.363C107.359 294.363 108.553 294.927 108.342 295.772L81.7227 294.715Z" fill="white"/>
</g>
<path d="M95.2094 287.388C95.2094 287.529 94.5772 287.529 93.8748 287.952C93.2427 288.304 92.8213 288.868 92.7511 288.797C92.6106 288.797 92.8213 288.022 93.6641 287.529C94.4368 287.106 95.2094 287.247 95.2094 287.388Z" fill="#263238"/>
<path d="M97.9486 288.657C97.9486 288.798 97.3868 289.009 96.9653 289.502C96.4737 289.995 96.3332 290.629 96.1927 290.629C96.0523 290.629 95.982 289.854 96.6141 289.22C97.176 288.586 97.9486 288.516 97.9486 288.657Z" fill="#263238"/>
<path d="M99.4236 292.109C99.2831 292.109 99.1427 291.475 99.4938 290.77C99.845 290.066 100.477 289.784 100.547 289.925C100.618 290.066 100.196 290.418 99.9153 290.982C99.5641 291.545 99.4939 292.039 99.4236 292.109Z" fill="#263238"/>
<path d="M95.0693 284.218C94.999 284.359 94.4372 284.147 93.6645 284.147C92.8919 284.147 92.33 284.359 92.2598 284.288C92.1896 284.218 92.7515 283.725 93.6645 283.725C94.5074 283.654 95.1395 284.147 95.0693 284.218Z" fill="#263238"/>
<g opacity="0.3">
<path d="M95.5599 276.468L95.3492 278.934L82.2852 278.3L82.3554 275.481L95.5599 276.468Z" fill="black"/>
</g>
<path d="M95.2069 281.47C95.2069 281.54 94.7152 281.61 93.8724 281.399C93.451 281.329 92.9593 281.188 92.4676 280.906C92.1867 280.765 91.976 280.624 91.695 280.483C91.5546 280.413 91.4141 280.342 91.2736 280.131C91.1331 279.99 91.0629 279.638 91.2736 279.426C91.4141 279.215 91.695 279.145 91.8355 279.145C92.0462 279.145 92.1867 279.215 92.3272 279.215C92.6081 279.285 92.8891 279.426 93.17 279.567C93.6617 279.849 94.0831 280.131 94.364 280.413C94.9259 280.976 95.1366 281.54 95.1366 281.54C95.0664 281.61 94.7855 281.188 94.1533 280.695C93.8724 280.413 93.451 280.201 92.9593 279.99C92.7486 279.92 92.4676 279.779 92.1867 279.708C91.9057 279.638 91.695 279.638 91.6248 279.708C91.6248 279.779 91.6248 279.779 91.6248 279.849C91.695 279.92 91.7653 279.99 91.9057 280.06C92.1165 280.201 92.3974 280.342 92.6081 280.483C93.0295 280.765 93.5212 280.906 93.8724 281.047C94.7152 281.329 95.2069 281.399 95.2069 281.47Z" fill="#263238"/>
<path d="M95.0661 281.611C94.9959 281.611 94.7852 281.118 94.7852 280.272C94.7852 279.85 94.8554 279.357 94.9959 278.793C95.0661 278.511 95.2066 278.229 95.3471 278.018C95.4875 277.736 95.6982 277.384 96.1899 277.384C96.4708 277.384 96.6816 277.595 96.7518 277.807C96.822 278.018 96.822 278.159 96.8923 278.3C96.9625 278.582 96.8923 278.934 96.8923 279.216C96.7518 279.779 96.5411 280.272 96.2601 280.554C95.6982 281.259 95.1363 281.329 95.1363 281.329C95.0661 281.259 95.5578 281.047 95.9792 280.343C96.1899 279.991 96.4006 279.568 96.4708 279.075C96.5411 278.793 96.5411 278.582 96.4708 278.3C96.4708 278.018 96.3304 277.807 96.2601 277.807C96.1197 277.807 95.909 278.018 95.7685 278.229C95.628 278.441 95.4875 278.722 95.4173 278.934C95.2066 279.427 95.1363 279.85 95.1363 280.272C94.9959 281.118 95.1363 281.611 95.0661 281.611Z" fill="#263238"/>
<path d="M68.1656 125.41C68.1656 125.41 63.9514 125.621 61.1419 140.065C58.3324 154.508 36.9102 271.676 36.9102 271.676L52.4325 271.817L81.7213 160.427L79.7546 275.269L95.5579 276.467C95.5579 276.467 107.428 149.435 107.498 142.038C107.639 132.808 102.371 123.508 102.371 123.508L68.1656 125.41Z" fill="#263238"/>
<path d="M89.5175 124.212C89.5878 124.212 87.9723 132.526 85.9355 142.672C83.8284 152.817 82.0724 161.061 82.0022 161.061C81.932 161.061 83.5474 152.747 85.5843 142.601C87.6212 132.385 89.3771 124.142 89.5175 124.212Z" fill="#455A64"/>
<path d="M91.905 126.255C91.905 126.185 92.3264 126.115 92.818 126.537C93.0287 126.749 93.2395 127.101 93.2395 127.524C93.2395 127.946 92.8883 128.44 92.4669 128.58C92.0454 128.792 91.4835 128.721 91.1324 128.44C90.7812 128.158 90.7109 127.735 90.7109 127.453C90.7109 126.819 91.1324 126.608 91.1324 126.608C91.2026 126.678 90.9216 126.89 90.9216 127.453C90.9216 127.735 91.0621 128.017 91.2728 128.228C91.4835 128.44 91.905 128.44 92.2562 128.299C92.6073 128.158 92.818 127.876 92.8883 127.524C92.8883 127.242 92.7478 126.89 92.6073 126.749C92.3264 126.326 91.905 126.326 91.905 126.255Z" fill="#455A64"/>
<path d="M91.2753 131.962C91.2753 131.892 91.6967 131.962 91.9776 132.526C92.1181 132.808 92.1181 133.16 91.9074 133.583C91.6967 133.935 91.205 134.217 90.7836 134.146C90.292 134.146 89.8705 133.794 89.7301 133.371C89.5896 132.949 89.7301 132.596 89.8705 132.314C90.2217 131.821 90.6431 131.821 90.6431 131.821C90.6431 131.892 90.292 131.962 90.0812 132.385C90.011 132.596 89.9408 132.878 90.0812 133.16C90.1515 133.442 90.5027 133.653 90.8539 133.653C91.205 133.653 91.5562 133.512 91.6967 133.301C91.8372 133.019 91.8372 132.737 91.7669 132.526C91.5562 132.174 91.205 132.033 91.2753 131.962Z" fill="#455A64"/>
<path d="M76.3817 126.396C76.3817 126.396 76.3817 126.678 76.171 127.101C76.0305 127.524 75.7495 128.228 75.3281 128.933C74.5555 130.483 73.0103 132.385 70.833 133.865C68.6556 135.344 66.2676 135.908 64.5116 136.049C63.6688 136.119 62.9664 136.119 62.4748 136.049C61.9831 135.978 61.7022 135.978 61.7724 135.908C61.7724 135.838 62.826 135.978 64.5116 135.767C66.1973 135.556 68.5151 134.922 70.6222 133.513C72.7996 132.103 74.2746 130.201 75.1174 128.792C76.0305 127.383 76.3114 126.396 76.3817 126.396Z" fill="#455A64"/>
<path d="M106.585 136.683C106.585 136.683 106.374 136.613 106.093 136.401C105.812 136.19 105.391 135.908 104.97 135.415C104.056 134.569 103.003 133.09 102.301 131.328C101.598 129.496 101.458 127.735 101.528 126.467C101.528 125.833 101.598 125.34 101.739 124.987C101.809 124.635 101.879 124.494 101.879 124.494C101.949 124.494 101.809 125.269 101.809 126.467C101.809 127.665 102.02 129.426 102.652 131.187C103.354 132.949 104.337 134.358 105.11 135.274C106.023 136.19 106.655 136.613 106.585 136.683Z" fill="#455A64"/>
<path d="M61.9845 97.5815L68.8677 97.9338C69.2891 100.188 70.8343 103.641 70.8343 103.641C76.383 93.9883 80.6675 81.0244 81.7913 75.8107C81.6508 75.3175 81.4401 74.6834 81.2294 74.0493C80.9484 73.2743 81.1591 71.9357 81.2996 71.0902C81.5103 69.9629 81.7913 68.3424 81.9317 67.6379C82.2127 65.4537 82.5639 65.1015 83.3365 65.3128C84.39 65.6651 82.9151 71.5129 83.7579 71.5834C84.2496 71.6538 84.8114 69.6811 84.9519 67.9901C85.0924 66.3697 85.865 61.2969 86.4269 60.9446C87.1995 60.4514 87.9019 61.2264 87.6912 62.8469C87.4804 64.4674 87.1995 69.4697 88.1126 69.4697C88.9554 69.5402 89.6578 61.156 89.6578 61.156C89.6578 61.156 89.5173 59.3241 90.5006 59.3946C92.3268 59.465 90.9221 68.272 90.7113 69.1174C90.5709 69.6811 91.5542 69.822 91.6244 69.1879C91.6947 68.5538 92.1161 60.8037 94.0125 60.8741C95.4172 60.9446 92.8887 68.1311 93.7315 69.822C94.5041 71.5129 95.066 64.1151 96.4005 64.256C96.8922 64.3264 97.2434 64.3969 96.3303 68.5538C95.8386 70.8084 94.3637 74.8948 93.0994 78.3471C90.9923 89.9018 81.5806 126.891 66.901 120.127C58.6833 116.323 54.8203 97.5815 54.8203 97.5815H61.9845Z" fill="#FFBE9D"/>
<path d="M93.0981 78.4876C93.0981 78.4876 93.0981 78.4172 93.1683 78.2058C93.2386 77.9945 93.3088 77.7831 93.4493 77.5013C93.66 76.8672 94.0112 75.8808 94.4326 74.683C94.854 73.4853 95.3457 72.0057 95.8373 70.2443C96.1183 69.3989 96.329 68.4125 96.4695 67.4261C96.5397 66.9329 96.6802 66.3693 96.7504 65.8761C96.7504 65.5943 96.8207 65.3124 96.8207 65.1011C96.8207 64.8193 96.7504 64.6079 96.5397 64.6079C96.329 64.5374 96.1885 64.7488 95.9778 64.9602C95.8373 65.1715 95.6969 65.4534 95.6266 65.7352C95.4159 66.2988 95.2754 66.8625 95.135 67.4966C94.9945 68.1307 94.854 68.6943 94.6433 69.3284C94.5028 69.6807 94.5028 69.9625 94.2219 70.3148C94.1517 70.3853 94.1517 70.3852 94.0112 70.4557C93.8707 70.4557 93.8005 70.4557 93.7302 70.3853C93.66 70.3148 93.5898 70.1739 93.5195 70.1034C93.4493 69.8921 93.3791 69.7511 93.3791 69.5398C93.2386 68.1307 93.5898 66.792 93.8005 65.3124C93.941 64.6079 94.0814 63.9033 94.1517 63.1988C94.2219 62.8465 94.2219 62.4942 94.2219 62.1419C94.2219 61.7897 94.1517 61.3669 94.0112 61.2965C93.8005 61.226 93.5195 61.4374 93.3088 61.7192C93.0981 62.001 92.9576 62.3533 92.8172 62.7056C92.6064 63.4101 92.3957 64.1852 92.2553 64.9602C92.1148 65.7352 92.0446 66.5102 91.9041 67.3557C91.8338 67.7784 91.8338 68.1307 91.7636 68.5534L91.6934 69.1875C91.6934 69.3284 91.6934 69.6807 91.4124 69.8921C91.2017 70.1034 90.8505 70.1034 90.5696 69.8921C90.4291 69.8216 90.3589 69.6807 90.2886 69.4693C90.2886 69.3989 90.2886 69.3284 90.2886 69.258V69.117C90.3589 68.6943 90.4291 68.2716 90.4993 67.9193C90.6398 67.0738 90.7101 66.2284 90.7803 65.3829C90.8505 64.5374 90.9208 63.692 90.9208 62.8465C90.9208 62.001 90.9208 61.0851 90.6398 60.3101C90.5696 60.0987 90.4291 59.8874 90.2886 59.8169C90.1482 59.7465 89.9374 59.8169 89.797 59.9578C89.5863 60.3101 89.516 60.8737 89.516 61.2965C89.3756 62.9874 89.1648 64.6079 88.9541 66.1579C88.8137 66.9329 88.6732 67.7784 88.5327 68.5534C88.4625 68.7648 88.3922 68.9761 88.322 69.117C88.2518 69.3284 88.1815 69.5398 87.9006 69.7511C87.6899 69.8921 87.4792 69.7512 87.4089 69.6102C87.3387 69.4693 87.2685 69.3989 87.1982 69.258C87.128 69.0466 87.0577 68.8352 87.0577 68.6239C86.847 67.0034 86.9173 65.5238 86.9875 63.9738C86.9875 63.1988 87.1982 62.4942 87.128 61.7897C87.0577 61.4374 86.9875 61.1556 86.7066 61.0147C86.5661 60.9442 86.4958 60.9442 86.3554 60.9442C86.2851 60.9442 86.2149 61.0147 86.1447 61.0147C86.0744 61.0851 86.0744 61.0147 86.0744 61.1556C85.7935 61.7192 85.653 62.4238 85.5125 63.1283C85.3721 63.8329 85.2316 64.467 85.1613 65.1011C85.0209 65.7352 84.9506 66.4397 84.8804 67.0738C84.8102 67.7079 84.7399 68.342 84.5994 68.9761C84.459 69.6102 84.3185 70.2443 84.1078 70.808C84.0376 70.9489 83.9673 71.0898 83.8971 71.2307C83.8268 71.3716 83.7566 71.5125 83.4757 71.583C83.3352 71.6534 83.1947 71.5125 83.1245 71.4421C83.0542 71.3716 83.0542 71.2307 82.984 71.1603C82.9138 71.0194 82.9138 70.808 82.9138 70.6671C82.9138 69.4693 83.0542 68.342 83.1245 67.2852C83.1245 66.792 83.1947 66.2284 83.1245 65.7352C83.1245 65.5238 83.0542 65.242 82.9138 65.1715C82.7031 65.1011 82.4923 65.0306 82.3519 65.1715C82.0709 65.3829 81.9305 65.9465 81.8602 66.2988C81.79 66.7216 81.7197 67.1443 81.6495 67.567C81.3686 69.258 81.0174 70.6671 80.8769 71.8648C80.8067 72.4285 80.8067 72.9921 80.8769 73.4148C80.9471 73.8376 81.0876 74.1899 81.2281 74.5421C81.2983 74.824 81.3686 75.0353 81.4388 75.2467C81.509 75.3876 81.509 75.4581 81.509 75.4581C81.509 75.4581 81.4388 75.3876 81.4388 75.2467C81.3686 75.1058 81.2983 74.824 81.2281 74.6126C81.1578 74.3308 81.0174 73.9785 80.8769 73.4853C80.8067 72.9921 80.8067 72.4989 80.8769 71.8648C81.0174 70.6671 81.2983 69.258 81.5793 67.567C81.6495 67.1443 81.7197 66.7216 81.79 66.2284C81.8602 66.017 81.8602 65.8056 82.0007 65.5238C82.0709 65.3124 82.2114 65.0306 82.4221 64.8897C82.7031 64.7488 82.984 64.7488 83.265 64.8897C83.6161 65.1011 83.6161 65.3829 83.6864 65.6647C83.7566 66.1579 83.7566 66.7216 83.6864 67.2852C83.6161 68.342 83.4757 69.4693 83.4757 70.5966C83.4757 70.7375 83.4757 70.8784 83.5459 71.0194C83.5459 71.1603 83.6161 71.2307 83.6161 71.1603C83.6161 71.1603 83.7566 71.0193 83.8268 70.9489C83.8971 70.808 83.9673 70.6671 84.0376 70.5262C84.2483 69.9625 84.3887 69.3989 84.5292 68.7648C84.6697 68.1307 84.6697 67.4966 84.7399 66.8625C84.8102 66.2284 84.8804 65.5238 85.0209 64.8897C85.0911 64.2556 85.2316 63.5511 85.3721 62.8465C85.5125 62.1419 85.653 61.5078 85.9339 60.7328C85.9339 60.6624 86.0744 60.5215 86.2149 60.451C86.2851 60.3806 86.4256 60.3806 86.4958 60.3101C86.7066 60.2396 86.9875 60.3101 87.1982 60.451C87.6196 60.7328 87.6899 61.1556 87.7601 61.5078C87.8303 61.8601 87.8303 62.2829 87.7601 62.6351C87.6899 62.9874 87.6899 63.3397 87.6899 63.7624C87.6196 65.242 87.5494 66.792 87.7601 68.2716C87.7601 68.4829 87.8303 68.6239 87.9006 68.7648C87.9006 68.8352 87.9708 68.9057 87.9708 68.9761C87.9708 69.117 87.9708 68.9761 87.9708 69.0466C87.9708 69.0466 87.9708 69.0466 87.9708 68.9761C88.0411 68.9761 88.1113 68.7648 88.1815 68.6239C88.2518 68.4829 88.322 68.2716 88.322 68.0602C88.5327 67.2852 88.6732 66.5102 88.7434 65.7352C88.9541 64.1147 89.1648 62.4942 89.3053 60.8737C89.3053 60.3101 89.3053 59.7465 89.6565 59.1828C89.8672 58.901 90.2886 58.7601 90.6398 58.901C90.991 59.0419 91.1315 59.3942 91.2719 59.676C91.5529 60.5919 91.5529 61.4374 91.5529 62.3533C91.5529 63.1988 91.4827 64.1147 91.4124 64.9602C91.3422 65.8056 91.2017 66.6511 91.1315 67.4966C91.0612 67.9193 90.991 68.342 90.9208 68.7648C90.8505 69.0466 90.8505 69.0466 90.991 69.117C91.0612 69.1875 91.272 69.1875 91.3422 69.117C91.4124 69.0466 91.4124 68.9057 91.4827 68.6943L91.5529 68.0602C91.6231 67.6375 91.6231 67.2147 91.6934 66.8625C91.7636 66.0875 91.9041 65.242 92.0446 64.467C92.185 63.692 92.3255 62.917 92.6065 62.1419C92.7469 61.7897 92.8874 61.3669 93.0981 61.0147C93.2386 60.8737 93.3791 60.6624 93.5195 60.5215C93.7302 60.3806 93.9409 60.3101 94.2219 60.3805C94.5028 60.5215 94.5731 60.8033 94.5731 61.0147C94.5731 61.226 94.6433 61.4374 94.6433 61.5783C94.6433 62.001 94.5731 62.3533 94.5731 62.7056C94.5028 63.4101 94.3624 64.1852 94.2219 64.8897C94.0112 66.2988 93.66 67.7079 93.8005 68.9761C93.8005 69.117 93.8707 69.258 93.941 69.3989C93.941 69.4693 94.0112 69.5398 94.0112 69.5398C94.0112 69.6102 94.0112 69.5398 94.0112 69.5398C94.0112 69.4693 94.0112 69.5398 94.0112 69.4693C94.1517 69.258 94.2921 68.9057 94.3624 68.6239C94.5731 67.9898 94.7136 67.3557 94.854 66.792C94.9945 66.1579 95.2052 65.5943 95.3457 65.0306C95.4159 64.7488 95.5564 64.467 95.6969 64.1852C95.7671 64.0442 95.8373 63.9033 96.0481 63.8329C96.1183 63.7624 96.1885 63.7624 96.329 63.692C96.4695 63.692 96.5397 63.692 96.61 63.692C96.7504 63.692 97.0314 63.8329 97.0314 64.0442C97.1016 64.1852 97.1016 64.3965 97.1016 64.5374C97.1016 64.8193 97.1016 65.1011 97.0314 65.3829C96.9611 65.9465 96.8909 66.4397 96.7504 66.9329C96.5397 67.9193 96.329 68.9057 96.0481 69.7511C95.5564 71.5125 94.9945 72.9921 94.5731 74.1899C94.1517 75.3876 93.8005 76.3035 93.5195 76.9376C93.3791 77.2194 93.3088 77.5013 93.2386 77.6422C93.1683 78.4172 93.0981 78.4876 93.0981 78.4876Z" fill="#EB996E"/>
<path d="M54.75 98.3557C56.0845 103.076 58.6833 110.404 61.4927 118.083C61.9142 119.211 63.4594 119.281 63.951 118.224L70.8342 103.64C70.8342 103.64 69.1486 91.6624 69.289 92.0852C69.4295 92.5079 55.1012 93.6352 55.1012 93.6352L54.75 98.3557Z" fill="#065373"/>
<path d="M70.2704 96.0313C70.2704 96.1017 69.4276 96.3131 68.0228 96.8767C66.6883 97.3699 64.7919 98.2154 62.8955 99.3427C60.9991 100.47 59.4539 101.738 58.3301 102.725C57.2064 103.711 56.6445 104.345 56.5742 104.275C56.5742 104.275 56.7147 104.063 56.9254 103.781C57.2064 103.5 57.6278 103.006 58.1194 102.513C59.173 101.456 60.7182 100.188 62.6848 98.9904C64.5812 97.7926 66.4776 97.0176 67.8824 96.5949C68.5847 96.3835 69.1466 96.1722 69.568 96.1017C69.9895 96.0312 70.2704 96.0313 70.2704 96.0313Z" fill="#FAFAFA"/>
<path d="M72.9401 99.6245C72.8699 99.6245 72.4484 99.1313 71.8163 98.1449C71.1842 97.1585 70.4116 95.7494 69.7092 94.129C69.0068 92.5085 68.5854 90.888 68.3747 89.7607C68.164 88.6334 68.0938 87.8584 68.0938 87.8584C68.164 87.8584 68.3045 88.563 68.5854 89.6902C68.8664 90.8175 69.358 92.3676 69.9901 93.988C70.6925 95.6085 71.3949 97.0176 72.027 98.004C72.5889 98.9904 73.0103 99.6245 72.9401 99.6245Z" fill="#263238"/>
<path d="M77.5798 35.0858C75.1917 38.9609 74.7001 44.0337 76.2453 48.3315C76.9476 50.2338 78.0714 52.2066 77.8607 54.2498C77.65 56.3634 76.0346 58.3362 76.5964 60.3794C76.9476 61.5772 77.9309 62.4931 78.3524 63.6908C78.844 65.0999 78.3524 66.5795 78.1417 68.0591C77.5798 71.7228 78.7738 75.4569 79.0547 79.1911C79.3357 82.9252 78.3524 87.2935 75.0512 88.9139C74.0679 89.4071 72.7334 89.548 71.8906 88.773C70.837 87.7867 71.118 86.0957 71.3989 84.6866C74.2786 70.5955 65.3585 56.8566 67.3954 42.5541C67.7466 40.2996 69.0109 36.4245 70.6263 34.804C72.2418 33.1835 76.8072 33.3949 78.3524 35.0858" fill="#263238"/>
<path d="M63.7422 75.9502C63.7422 75.9502 64.1636 75.457 64.7957 74.4706C65.4279 73.4842 66.2005 71.9342 66.6219 69.891C66.8326 68.8342 66.9028 67.7069 66.8326 66.4387C66.7624 65.1705 66.6219 63.8318 66.6921 62.4227C66.6921 61.7181 66.9028 61.0136 67.1136 60.2386C67.3945 59.534 67.6754 58.8295 68.0969 58.1954C68.8695 56.8567 69.8528 55.5885 70.7659 54.3203C71.679 52.9816 72.4516 51.5725 72.6623 50.093C72.9432 48.6134 72.6623 47.1338 72.4516 45.7952C72.2408 44.3861 72.0301 43.0474 72.1706 41.7792C72.2408 40.511 72.5218 39.3837 72.873 38.3269C73.5753 36.2837 74.5587 34.8746 75.3313 33.9586C75.7527 33.5359 76.0336 33.1836 76.3146 32.9723C76.5253 32.7609 76.6658 32.6904 76.6658 32.6904C76.6658 32.6904 76.1741 33.1836 75.4717 34.0995C74.7694 35.0155 73.7861 36.495 73.1539 38.4678C72.8027 39.4542 72.592 40.5815 72.5218 41.8497C72.4516 43.1179 72.592 44.3861 72.873 45.7952C73.0837 47.2043 73.3646 48.6839 73.1539 50.2339C72.873 51.7839 72.1004 53.2635 71.1873 54.6021C70.2742 55.9408 69.2909 57.209 68.5183 58.4772C68.1671 59.1113 67.8159 59.8158 67.6052 60.4499C67.3945 61.1545 67.254 61.8591 67.1838 62.4932C67.1136 63.9023 67.254 65.2409 67.3243 66.4387C67.3945 67.7069 67.254 68.9046 67.0433 69.9615C66.6219 72.0751 65.7791 73.6251 65.0767 74.6115C64.7255 75.1047 64.4446 75.457 64.2338 75.6684C63.8124 75.8797 63.7422 76.0206 63.7422 75.9502Z" fill="#455A64"/>
<path d="M57.0703 77.0073C57.0703 77.0073 57.1406 76.8664 57.281 76.5141C57.4215 76.1618 57.7024 75.7391 57.9834 75.1754C58.5453 74.0482 59.4584 72.3572 60.3012 70.2436C61.144 68.1299 61.9869 65.4526 61.9869 62.423C61.9869 61.648 61.9167 60.873 61.8464 60.098C61.7059 59.3229 61.5655 58.5479 61.425 57.7025C61.2845 56.857 61.2845 56.0115 61.4952 55.0956C61.7059 54.2501 62.2678 53.4047 62.9 52.841C64.2345 51.6433 65.8499 50.8683 66.6225 49.4591C67.4654 48.05 67.6761 46.4296 67.8868 44.95C68.0975 43.4 68.3784 41.9909 68.8701 40.7227C69.3618 39.4545 69.9939 38.3272 70.626 37.3408C71.9605 35.4385 73.4355 34.2407 74.5593 33.5362C75.1212 33.1839 75.5426 32.9021 75.8236 32.7612C76.1045 32.6203 76.3152 32.5498 76.3152 32.5498C76.3152 32.6203 75.6831 32.9021 74.6295 33.6066C73.576 34.3817 72.1712 35.5794 70.8367 37.4817C70.2046 38.3976 69.5725 39.5249 69.1511 40.7931C68.6594 42.0613 68.3784 43.4704 68.238 45.0204C68.0273 46.5 67.8868 48.1909 66.9737 49.6705C66.0606 51.2205 64.4452 51.9956 63.1809 53.1933C62.5488 53.7569 62.0571 54.4615 61.8464 55.307C61.6357 56.082 61.7059 56.9274 61.7762 57.7729C61.9167 58.6184 62.0571 59.3934 62.1976 60.1684C62.3381 60.9434 62.3381 61.7889 62.3381 62.5639C62.2678 65.6639 61.425 68.3413 60.5119 70.4549C59.5988 72.5686 58.6858 74.2595 58.0536 75.3868C57.7727 75.9505 57.4917 76.3732 57.281 76.655C57.1406 76.8664 57.0703 77.0778 57.0703 77.0073Z" fill="#455A64"/>
<path d="M289.412 276.116C289.412 276.116 289.483 276.045 289.553 275.834C289.623 275.622 289.763 275.341 289.974 274.988C290.325 274.213 290.747 273.086 291.168 271.606C291.941 268.577 292.222 263.927 291.098 258.431C290.536 255.683 289.693 252.724 288.64 249.624C287.586 246.454 286.392 243.142 285.409 239.549C284.425 235.956 283.653 232.081 283.793 227.994C283.934 223.908 285.128 219.822 286.462 215.735C287.797 211.649 289.131 207.703 289.553 203.687C290.044 199.671 289.131 195.796 287.375 192.555C285.619 189.314 283.372 186.496 281.756 183.678C280.071 180.789 279.017 177.83 278.385 175.082C277.121 169.516 277.542 164.866 278.174 161.837C278.806 158.737 279.579 157.187 279.579 157.187C279.579 157.187 279.579 157.327 279.509 157.468C279.439 157.68 279.368 157.962 279.228 158.384C279.017 159.159 278.666 160.357 278.385 161.907C277.823 165.007 277.472 169.587 278.736 175.082C279.368 177.83 280.422 180.719 282.108 183.537C283.793 186.355 285.971 189.173 287.797 192.414C289.623 195.655 290.536 199.742 290.044 203.758C289.623 207.844 288.218 211.86 286.954 215.876C285.619 219.962 284.425 223.978 284.285 227.994C284.144 232.01 284.847 235.885 285.83 239.479C286.814 243.072 288.008 246.383 288.991 249.554C290.044 252.724 290.887 255.683 291.379 258.431C292.503 263.997 292.152 268.647 291.379 271.677C290.957 273.227 290.466 274.354 290.115 275.059C289.904 275.411 289.763 275.693 289.693 275.904C289.483 276.045 289.482 276.116 289.412 276.116Z" fill="#263238"/>
<path d="M284.004 186.425C284.004 186.425 280.633 175.645 286.673 169.304C286.884 169.093 287.235 169.164 287.306 169.516C287.657 171.277 288.078 176.702 284.004 186.425Z" fill="#E8505B"/>
<path d="M286.04 172.897C286.11 172.897 285.97 173.672 285.829 174.87C285.619 176.209 285.338 177.829 285.057 179.661C284.776 181.423 284.495 183.043 284.284 184.382C284.073 185.579 284.003 186.354 283.933 186.354C283.863 186.354 283.863 185.579 284.003 184.382C284.144 183.184 284.354 181.423 284.635 179.591C284.916 177.759 285.267 176.068 285.548 174.87C285.759 173.672 285.97 172.897 286.04 172.897Z" fill="#263238"/>
<path d="M288.008 211.86C288.008 211.86 290.045 200.728 298.333 197.98C298.614 197.91 298.895 198.121 298.824 198.473C298.262 200.164 296.085 205.167 288.008 211.86Z" fill="#E8505B"/>
<path d="M296.085 200.869C296.155 200.94 295.663 201.503 294.961 202.49C294.118 203.617 293.135 204.885 292.081 206.365C291.028 207.774 290.044 209.112 289.202 210.24C288.499 211.226 288.008 211.86 287.937 211.79C287.867 211.79 288.288 211.085 288.921 210.028C289.623 208.972 290.606 207.562 291.73 206.083C292.854 204.603 293.907 203.265 294.75 202.278C295.453 201.433 296.015 200.869 296.085 200.869Z" fill="#263238"/>
<path d="M285.758 239.761C285.758 239.761 284.494 228.558 291.658 223.485C291.939 223.274 292.22 223.485 292.22 223.767C292.149 225.599 291.517 230.954 285.758 239.761Z" fill="#E8505B"/>
<path d="M290.255 226.867C290.325 226.867 290.044 227.642 289.623 228.769C289.131 230.038 288.569 231.588 287.937 233.279C287.305 234.97 286.743 236.52 286.321 237.788C285.9 238.915 285.689 239.69 285.619 239.62C285.549 239.62 285.689 238.845 286.041 237.647C286.392 236.449 286.954 234.829 287.586 233.067C288.218 231.306 288.85 229.685 289.342 228.558C289.904 227.501 290.255 226.867 290.255 226.867Z" fill="#263238"/>
<path d="M291.94 267.731C291.94 267.731 291.097 256.458 298.402 251.667C298.683 251.526 298.963 251.667 298.963 252.02C298.893 253.851 298.05 259.206 291.94 267.731Z" fill="#E8505B"/>
<path d="M296.996 255.049C297.066 255.049 296.786 255.824 296.294 256.951C295.802 258.219 295.17 259.769 294.468 261.39C293.765 263.081 293.203 264.56 292.642 265.829C292.22 266.956 291.939 267.66 291.869 267.66C291.799 267.66 292.009 266.885 292.361 265.688C292.712 264.49 293.344 262.94 294.046 261.178C294.749 259.417 295.451 257.867 296.013 256.74C296.575 255.683 296.926 255.049 296.996 255.049Z" fill="#263238"/>
<path d="M279.227 176.984C279.227 176.984 269.254 171.77 269.043 163.034C269.043 162.752 269.394 162.541 269.605 162.682C271.08 163.668 275.224 167.261 279.227 176.984Z" fill="#E8505B"/>
<path d="M271.078 165.993C271.148 165.993 271.57 166.557 272.342 167.543C273.185 168.67 274.098 170.009 275.152 171.418C276.205 172.898 277.189 174.166 277.961 175.293C278.664 176.28 279.155 176.914 279.085 176.914C279.015 176.984 278.523 176.421 277.68 175.434C276.908 174.518 275.854 173.109 274.73 171.63C273.606 170.08 272.693 168.67 271.991 167.614C271.429 166.698 271.008 165.993 271.078 165.993Z" fill="#263238"/>
<path d="M289.902 200.094C289.902 200.094 279.648 195.514 278.875 186.778C278.875 186.496 279.156 186.285 279.437 186.426C280.982 187.342 285.337 190.653 289.902 200.094Z" fill="#E8505B"/>
<path d="M281.191 189.666C281.261 189.596 281.753 190.23 282.526 191.146C283.369 192.203 284.422 193.471 285.546 194.88C286.67 196.289 287.723 197.557 288.566 198.614C289.339 199.53 289.83 200.164 289.83 200.164C289.76 200.235 289.198 199.671 288.355 198.826C287.513 197.91 286.389 196.642 285.195 195.162C284.001 193.682 282.947 192.344 282.245 191.357C281.542 190.371 281.121 189.666 281.191 189.666Z" fill="#263238"/>
<path d="M284.002 225.951C284.002 225.951 276.909 217.144 280.28 209.042C280.42 208.76 280.772 208.69 280.912 208.971C281.895 210.521 284.213 215.453 284.002 225.951Z" fill="#E8505B"/>
<path d="M280.983 212.635C281.054 212.635 281.194 213.339 281.475 214.537C281.756 215.876 282.107 217.496 282.529 219.258C282.88 221.019 283.231 222.639 283.582 223.978C283.863 225.176 284.004 225.951 283.933 225.951C283.863 225.951 283.582 225.246 283.231 224.049C282.88 222.851 282.458 221.23 282.107 219.328C281.686 217.496 281.405 215.805 281.194 214.608C280.983 213.41 280.913 212.635 280.983 212.635Z" fill="#263238"/>
<path d="M291.028 256.317C291.028 256.317 280.843 251.526 280.281 242.79C280.281 242.508 280.562 242.297 280.843 242.437C282.318 243.424 286.603 246.806 291.028 256.317Z" fill="#E8505B"/>
<path d="M282.387 245.749C282.457 245.749 282.949 246.313 283.721 247.229C284.564 248.285 285.618 249.624 286.671 251.033C287.795 252.442 288.778 253.711 289.691 254.767C290.464 255.754 290.956 256.317 290.885 256.388C290.815 256.458 290.253 255.895 289.481 254.979C288.638 254.063 287.514 252.795 286.39 251.315C285.196 249.835 284.213 248.497 283.511 247.44C282.808 246.454 282.387 245.749 282.387 245.749Z" fill="#263238"/>
<path d="M311.323 211.931C311.323 211.931 311.323 212.001 311.323 212.213C311.323 212.424 311.323 212.635 311.323 212.917C311.323 213.622 311.252 214.538 311.182 215.665C311.042 218.06 310.901 221.442 310.62 225.458C309.918 229.545 307.811 234.054 305.001 238.492C302.965 241.733 300.787 244.693 298.961 247.44C297.135 250.188 295.519 252.724 294.466 254.979C293.342 257.234 292.71 259.136 292.359 260.475C292.148 261.179 292.078 261.672 291.937 262.025C291.867 262.377 291.797 262.588 291.797 262.588C291.797 262.588 291.797 262.377 291.867 262.025C291.937 261.672 292.008 261.109 292.218 260.404C292.569 259.065 293.131 257.093 294.255 254.838C295.309 252.584 296.854 249.977 298.75 247.229C300.576 244.481 302.754 241.522 304.72 238.281C307.46 233.913 309.567 229.474 310.339 225.388C310.62 221.372 310.831 217.99 311.042 215.594C311.112 214.467 311.182 213.551 311.252 212.847C311.252 212.565 311.323 212.353 311.323 212.142C311.323 212.001 311.323 211.931 311.323 211.931Z" fill="#263238"/>
<path d="M305.213 237.647C305.213 237.647 309.568 227.22 304.089 220.386C303.879 220.174 303.527 220.245 303.457 220.527C302.965 222.217 302.123 227.572 305.213 237.647Z" fill="#E8505B"/>
<path d="M304.441 223.979C304.512 223.979 304.652 224.754 304.793 225.951C304.933 227.149 305.144 228.84 305.284 230.742C305.425 232.645 305.495 234.335 305.495 235.533C305.495 236.801 305.425 237.506 305.354 237.506C305.284 237.506 305.284 236.731 305.144 235.533C305.074 234.124 304.933 232.504 304.793 230.742C304.652 228.981 304.582 227.29 304.441 225.951C304.441 224.754 304.371 223.979 304.441 223.979Z" fill="#263238"/>
<g opacity="0.3">
<path d="M305.213 237.647C305.213 237.647 309.568 227.22 304.089 220.386C303.879 220.174 303.527 220.245 303.457 220.527C302.965 222.217 302.123 227.572 305.213 237.647Z" fill="black"/>
</g>
<path d="M291.868 262.73C291.868 262.73 295.31 251.95 289.34 245.609C289.129 245.398 288.778 245.468 288.708 245.82C288.357 247.582 287.935 253.007 291.868 262.73Z" fill="#E8505B"/>
<path d="M289.972 249.272C290.042 249.272 290.253 249.977 290.463 251.245C290.744 252.443 291.025 254.134 291.306 255.966C291.587 257.798 291.798 259.559 291.868 260.757C291.938 262.025 291.938 262.729 291.938 262.729C291.868 262.729 291.798 261.954 291.587 260.757C291.376 259.418 291.166 257.798 290.885 255.966C290.604 254.204 290.393 252.584 290.182 251.175C289.972 249.977 289.901 249.272 289.972 249.272Z" fill="#263238"/>
<g opacity="0.3">
<path d="M291.868 262.73C291.868 262.73 295.31 251.95 289.34 245.609C289.129 245.398 288.778 245.468 288.708 245.82C288.357 247.582 287.935 253.007 291.868 262.73Z" fill="black"/>
</g>
<path d="M310.762 224.895C310.762 224.895 319.963 218.413 319.05 209.747C319.05 209.465 318.628 209.324 318.418 209.535C317.083 210.663 313.431 214.749 310.762 224.895Z" fill="#E8505B"/>
<g opacity="0.3">
<path d="M310.762 224.895C310.762 224.895 319.963 218.413 319.05 209.747C319.05 209.465 318.628 209.324 318.418 209.535C317.083 210.663 313.431 214.749 310.762 224.895Z" fill="black"/>
</g>
<path d="M317.364 212.917C317.434 212.917 317.153 213.622 316.591 214.749C316.1 215.876 315.327 217.356 314.414 219.047C313.501 220.738 312.658 222.147 312.026 223.203C311.394 224.26 310.902 224.824 310.832 224.824C310.762 224.824 311.183 224.119 311.745 223.063C312.377 221.865 313.22 220.385 314.063 218.835C314.906 217.285 315.678 215.806 316.381 214.608C316.943 213.551 317.294 212.917 317.364 212.917Z" fill="#263238"/>
<path d="M295.59 252.091C295.59 252.091 306.687 250.329 309.707 242.156C309.778 241.875 309.567 241.593 309.286 241.663C307.53 242.156 302.473 244.2 295.59 252.091Z" fill="#E8505B"/>
<g opacity="0.3">
<path d="M295.59 252.091C295.59 252.091 306.687 250.329 309.707 242.156C309.778 241.875 309.567 241.593 309.286 241.663C307.53 242.156 302.473 244.2 295.59 252.091Z" fill="black"/>
</g>
<path d="M306.758 244.341C306.828 244.411 306.196 244.904 305.283 245.679C304.299 246.454 302.965 247.511 301.42 248.568C299.874 249.695 298.47 250.611 297.416 251.245C296.363 251.879 295.66 252.232 295.66 252.161C295.66 252.091 296.222 251.668 297.276 250.963C298.399 250.188 299.734 249.202 301.209 248.216C302.684 247.159 304.018 246.243 305.142 245.397C306.055 244.693 306.758 244.27 306.758 244.341Z" fill="#263238"/>
<path d="M284.989 272.663L281.688 294.575H301.916L299.317 272.663H284.989Z" fill="#455A64"/>
<path d="M300.158 279.427C300.158 279.568 296.506 279.639 292.011 279.639C287.516 279.639 283.863 279.568 283.863 279.427C283.863 279.286 287.516 279.216 292.011 279.216C296.506 279.216 300.158 279.286 300.158 279.427Z" fill="#263238"/>
<path d="M300.509 281.188C300.509 281.329 296.716 281.399 292.081 281.399C287.445 281.399 283.652 281.329 283.652 281.188C283.652 281.047 287.445 280.977 292.081 280.977C296.787 280.977 300.509 281.047 300.509 281.188Z" fill="#263238"/>
<path d="M221.842 60.0987C221.842 60.0987 221.631 60.0987 221.28 60.0987C220.929 60.0987 220.367 60.0282 219.665 60.0987C218.26 60.1692 216.153 60.451 213.695 61.5078C211.236 62.5646 208.357 64.3965 206.109 67.4261C204.985 68.9761 204.002 70.8079 203.44 72.8512C202.878 74.9648 202.668 77.2194 202.948 79.6149C203.229 82.0104 204.002 84.4763 205.266 86.7309C205.898 87.8582 206.671 88.915 207.654 89.9014C208.567 90.8878 209.691 91.8037 210.885 92.4378C212.079 93.0719 213.484 93.4947 214.959 93.4947C216.364 93.4242 217.839 92.931 218.892 91.8742C219.946 90.8173 220.437 89.3378 220.437 87.7878C220.437 86.2377 219.946 84.7582 219.033 83.49C217.207 80.9536 214.257 79.1922 211.096 78.2762C207.935 77.3603 204.423 77.3603 201.122 78.1353C199.437 78.5581 197.821 79.1922 196.346 80.0376C194.801 80.8831 193.466 82.0104 192.202 83.2786C191.921 83.6309 191.57 83.9127 191.359 84.265L190.587 85.3218C190.095 86.0968 189.674 86.8718 189.323 87.6468C188.55 89.2673 188.058 91.0287 187.777 92.8606C187.286 96.4538 187.707 100.188 189.182 103.429C190.587 106.67 192.975 109.488 195.995 111.179C197.47 112.024 199.156 112.518 200.771 112.659C202.457 112.729 204.072 112.306 205.477 111.531C206.882 110.686 208.076 109.488 208.708 108.009C209.34 106.529 209.34 104.838 208.778 103.429C208.286 101.949 207.303 100.681 206.109 99.6948C204.985 98.7084 203.651 97.9334 202.246 97.4402C199.437 96.5243 196.416 96.5947 193.677 97.2993C190.938 98.0038 188.55 99.4129 186.654 101.245C184.757 103.077 183.423 105.261 182.65 107.515C181.035 112.024 181.456 116.675 182.861 120.197C184.265 123.72 186.583 126.257 188.62 127.947C190.727 129.638 192.624 130.554 193.958 131.047C194.59 131.329 195.152 131.47 195.503 131.611C195.855 131.752 195.995 131.752 195.995 131.752C195.995 131.752 195.784 131.682 195.433 131.611C195.082 131.541 194.59 131.329 193.888 131.118C192.553 130.625 190.657 129.709 188.48 128.088C186.373 126.397 184.055 123.861 182.58 120.338C181.175 116.815 180.683 112.095 182.369 107.515C183.142 105.261 184.546 103.006 186.443 101.174C188.339 99.3425 190.797 97.9334 193.537 97.1583C196.276 96.3833 199.366 96.3129 202.246 97.2993C203.651 97.7925 205.056 98.5675 206.25 99.6243C207.444 100.681 208.427 101.949 208.989 103.499C209.551 105.049 209.551 106.811 208.919 108.361C208.286 109.911 207.022 111.179 205.547 112.024C204.072 112.87 202.316 113.293 200.631 113.222C198.875 113.152 197.189 112.588 195.644 111.743C192.553 110.052 190.165 107.163 188.69 103.852C187.215 100.54 186.794 96.7356 187.215 93.0719C187.496 91.2401 187.988 89.4787 188.761 87.7878C189.112 86.9423 189.603 86.1673 190.095 85.3923L190.938 84.265C191.219 83.9127 191.57 83.5604 191.851 83.2081C193.115 81.8695 194.52 80.7422 196.065 79.8967C197.61 79.0513 199.296 78.4172 200.982 77.924C204.353 77.0785 207.935 77.149 211.166 78.0649C214.397 79.0513 217.347 80.7422 219.243 83.4195C220.157 84.7582 220.718 86.3082 220.718 87.9287C220.718 89.4787 220.157 91.0992 219.033 92.2265C217.909 93.3537 216.364 93.8469 214.889 93.9174C213.414 93.9878 211.939 93.5651 210.675 92.8606C209.41 92.156 208.286 91.2401 207.373 90.2537C206.39 89.2673 205.617 88.14 204.985 87.0127C203.651 84.6877 202.948 82.2218 202.597 79.8263C202.316 77.4308 202.527 75.0353 203.089 72.9216C203.651 70.8079 204.634 68.9761 205.828 67.4261C208.146 64.326 211.026 62.4942 213.554 61.5078C216.083 60.451 218.19 60.2396 219.595 60.1692C220.297 60.0987 220.859 60.1692 221.21 60.1692C221.702 60.0282 221.842 60.0987 221.842 60.0987Z" fill="#263238"/>
<path d="M245.3 130.555H146.828V206.717H245.3V130.555Z" fill="#11657F"/>
<path d="M146.828 130.554L165.019 147.604H261.876L245.3 130.554H146.828Z" fill="#065373"/>
<path d="M146.828 130.554C148.584 130.554 189.251 130.484 245.3 130.343H245.37L245.441 130.413C250.708 135.838 256.187 141.475 261.806 147.252C261.876 147.323 261.946 147.393 261.946 147.393L262.227 147.675H261.806C222.122 147.675 186.863 147.604 165.019 147.604H164.949C153.571 136.966 147.46 131.118 146.828 130.554C147.46 131.118 153.641 136.825 165.09 147.463H165.019C186.933 147.463 222.122 147.393 261.806 147.393L261.665 147.675C261.595 147.604 261.525 147.534 261.525 147.534C255.906 141.757 250.427 136.12 245.16 130.695L245.3 130.766C189.321 130.625 148.654 130.554 146.828 130.554Z" fill="#263238"/>
<path d="M176.4 165.712C175.347 165.712 174.434 166.628 174.363 167.685C174.363 168.742 175.276 169.728 176.33 169.728C177.383 169.798 178.367 168.882 178.437 167.826C178.507 166.769 177.594 165.782 176.541 165.712" fill="#263238"/>
<path d="M199.65 165.712C198.597 165.712 197.684 166.628 197.613 167.685C197.613 168.742 198.526 169.728 199.58 169.728C200.633 169.798 201.617 168.882 201.687 167.826C201.757 166.769 200.844 165.782 199.791 165.712" fill="#263238"/>
<path d="M199.861 183.96C199.791 184.031 199.58 182.058 197.894 179.592C197.052 178.394 195.858 177.056 194.172 175.999C192.556 174.942 190.449 174.167 188.202 174.096C185.954 174.026 183.847 174.73 182.161 175.646C180.476 176.633 179.141 177.831 178.228 179.028C176.402 181.424 176.121 183.326 176.051 183.326C176.051 183.326 176.051 183.185 176.121 182.974C176.191 182.762 176.191 182.41 176.402 182.058C176.683 181.283 177.175 180.156 178.088 178.887C179.001 177.69 180.265 176.351 182.021 175.365C183.777 174.378 185.954 173.674 188.272 173.744C190.59 173.815 192.767 174.59 194.383 175.717C196.068 176.844 197.333 178.183 198.105 179.451C198.948 180.719 199.369 181.846 199.58 182.692C199.721 183.115 199.721 183.397 199.791 183.608C199.861 183.819 199.861 183.96 199.861 183.96Z" fill="#263238"/>
<path opacity="0.5" d="M147.039 131.399L164.458 153.593H245.3V147.604H165.02L147.039 131.399Z" fill="black"/>
<path d="M225.918 206.576C225.847 206.576 225.707 193.331 225.707 176.985C225.707 160.639 225.777 147.394 225.918 147.394C225.988 147.394 226.128 160.639 226.128 176.985C226.058 193.331 225.988 206.576 225.918 206.576Z" fill="#263238"/>
<path d="M241.37 189.314H232.66V199.178H241.37V189.314Z" fill="#F5F5F5"/>
<path d="M146.83 130.555L126.602 147.605H146.83V130.555Z" fill="#E8505B"/>
<g opacity="0.4">
<path d="M146.83 130.555L126.602 147.605H146.83V130.555Z" fill="#F46036"/>
</g>
<path d="M248.253 206.787H135.031V294.363H248.253V206.787Z" fill="#065373"/>
<path opacity="0.3" d="M248.253 206.787H135.031V294.363H248.253V206.787Z" fill="#065373"/>
<path d="M219.879 293.729C219.808 293.729 219.668 274.213 219.668 250.117C219.668 226.021 219.738 206.505 219.879 206.505C220.019 206.505 220.089 226.021 220.089 250.117C220.019 274.213 219.949 293.729 219.879 293.729Z" fill="#065373"/>
<path d="M238.631 274.424H229.922V284.288H238.631V274.424Z" fill="#065373"/>
<path d="M182.369 206.998H169.516V225.669H182.369V206.998Z" fill="#065373"/>
<path d="M182.369 275.41H169.516V294.081H182.369V275.41Z" fill="#065373"/>
<path d="M247.27 206.786C247.27 206.786 247.2 206.786 246.989 206.786C246.778 206.786 246.497 206.786 246.146 206.786C245.373 206.786 244.25 206.786 242.845 206.786C239.965 206.786 235.891 206.786 230.834 206.857C220.65 206.857 206.673 206.857 191.15 206.927C175.628 206.927 161.651 206.857 151.467 206.857C146.41 206.857 142.266 206.786 139.456 206.786C138.051 206.786 136.928 206.786 136.155 206.786C135.804 206.786 135.523 206.786 135.312 206.786C135.101 206.786 135.031 206.786 135.031 206.786C135.031 206.786 135.101 206.786 135.312 206.786C135.523 206.786 135.804 206.786 136.155 206.786C136.928 206.786 138.051 206.786 139.456 206.786C142.336 206.786 146.41 206.786 151.467 206.716C161.651 206.716 175.628 206.716 191.15 206.646C206.603 206.646 220.65 206.716 230.834 206.716C235.891 206.716 240.035 206.786 242.845 206.786C244.25 206.786 245.373 206.786 246.146 206.786C246.497 206.786 246.778 206.786 246.989 206.786C247.129 206.786 247.27 206.786 247.27 206.786Z" fill="#065373"/>
<path d="M53.2071 55.0961C52.3643 54.8847 48.5013 53.8983 40.8454 52.0665H40.9157C38.1764 53.8279 34.5241 55.1665 30.2397 55.237C28.1326 55.237 25.885 54.9552 23.6374 54.2506C21.3898 53.546 19.2125 52.4187 17.1756 50.7983C13.1721 47.6982 10.0817 42.7663 9.37931 36.989C9.02813 34.1707 9.23884 31.1412 10.1519 28.3229C11.065 25.5047 12.6102 22.7569 14.6471 20.5024C15.7006 19.3046 16.9649 18.3182 18.2292 17.4023C18.8613 16.9796 19.5637 16.5568 20.266 16.2046L21.3196 15.7114L21.9517 15.5L22.5136 15.2886C25.3933 14.1613 28.4135 13.7386 31.3635 13.95C34.3134 14.1613 37.1229 14.9364 39.5812 16.275C42.0395 17.5432 44.1466 19.3046 45.8323 21.3478C47.5179 23.3206 48.712 25.5752 49.4846 27.8297C50.2572 30.0843 50.6084 32.3389 50.6084 34.523C50.6084 38.8208 49.2739 42.555 47.6584 45.2323V45.0914C51.1 51.2915 52.7857 54.3915 53.2071 55.0961C52.7857 54.3915 51.0298 51.2915 47.4477 45.1618V45.0914V45.0209C49.0632 42.3436 50.3274 38.6799 50.3274 34.4526C50.3274 32.3389 49.906 30.0843 49.2036 27.9002C48.431 25.7161 47.237 23.4615 45.6215 21.5592C44.0061 19.5864 41.899 17.8955 39.5109 16.6273C37.1229 15.3591 34.3134 14.5841 31.4337 14.3727C28.554 14.1613 25.5338 14.5841 22.7243 15.7114L22.1624 15.9227L21.6708 16.2046L20.6172 16.6978C19.9148 17.05 19.2827 17.4728 18.6506 17.8955C17.3863 18.8114 16.1923 19.7978 15.1387 20.9251C13.1019 23.1797 11.5567 25.7865 10.7138 28.6047C9.87097 31.423 9.59002 34.3117 9.94121 37.1299C10.5733 42.7663 13.6638 47.6278 17.5268 50.6574C19.4934 52.2074 21.6708 53.3347 23.8481 54.0392C26.0255 54.7438 28.273 55.0256 30.3099 55.0256C34.5241 54.9551 38.1062 53.6165 40.8454 51.9256H40.9157H40.9859C48.5013 53.8279 52.3643 54.8847 53.2071 55.0961Z" fill="#263238"/>
<path d="M28.2734 25.3642L28.9758 35.7212C29.046 36.5666 29.6782 37.2712 30.521 37.2712C31.4341 37.3416 32.2067 36.6371 32.2769 35.7916L33.4007 25.4346C33.471 24.6596 32.8388 23.9551 32.0662 23.9551H29.5377C28.8353 24.0255 28.2734 24.6596 28.2734 25.3642Z" fill="#F46036"/>
<path d="M33.2614 43.119C32.8399 44.4577 31.4352 45.1622 30.1007 44.7395C28.7662 44.3168 28.0638 42.9077 28.4853 41.569C28.9067 40.2304 30.3114 39.5258 31.6459 39.9485C32.9804 40.3713 33.6828 41.7804 33.2614 43.119Z" fill="#F46036"/>
</g>
<path d="M106.684 342V330.8H108.028L113.996 339.776V330.8H115.34V342H113.996L108.028 333.024V342H106.684ZM121.251 342.192C120.505 342.192 119.833 342.021 119.235 341.68C118.638 341.339 118.163 340.859 117.811 340.24C117.47 339.611 117.299 338.875 117.299 338.032C117.299 337.189 117.475 336.459 117.827 335.84C118.179 335.211 118.654 334.725 119.251 334.384C119.859 334.043 120.537 333.872 121.283 333.872C122.03 333.872 122.702 334.043 123.299 334.384C123.897 334.725 124.366 335.211 124.707 335.84C125.059 336.459 125.235 337.189 125.235 338.032C125.235 338.875 125.059 339.611 124.707 340.24C124.355 340.859 123.875 341.339 123.267 341.68C122.67 342.021 121.998 342.192 121.251 342.192ZM121.251 341.04C121.71 341.04 122.137 340.928 122.531 340.704C122.926 340.48 123.246 340.144 123.491 339.696C123.737 339.248 123.859 338.693 123.859 338.032C123.859 337.371 123.737 336.816 123.491 336.368C123.257 335.92 122.942 335.584 122.547 335.36C122.153 335.136 121.731 335.024 121.283 335.024C120.825 335.024 120.398 335.136 120.003 335.36C119.609 335.584 119.289 335.92 119.043 336.368C118.798 336.816 118.675 337.371 118.675 338.032C118.675 338.693 118.798 339.248 119.043 339.696C119.289 340.144 119.603 340.48 119.987 340.704C120.382 340.928 120.803 341.04 121.251 341.04ZM131.418 342V330.8H135.034C135.909 330.8 136.624 330.944 137.178 331.232C137.733 331.52 138.144 331.915 138.41 332.416C138.677 332.917 138.81 333.472 138.81 334.08C138.81 334.784 138.618 335.419 138.234 335.984C137.861 336.549 137.274 336.949 136.474 337.184L138.922 342H137.338L135.066 337.376H134.97H132.762V342H131.418ZM132.762 336.32H134.938C135.802 336.32 136.432 336.112 136.826 335.696C137.221 335.28 137.418 334.747 137.418 334.096C137.418 333.435 137.221 332.912 136.826 332.528C136.442 332.133 135.808 331.936 134.922 331.936H132.762V336.32ZM143.906 342.192C143.149 342.192 142.477 342.021 141.89 341.68C141.304 341.328 140.84 340.843 140.498 340.224C140.168 339.605 140.002 338.875 140.002 338.032C140.002 337.2 140.168 336.475 140.498 335.856C140.829 335.227 141.288 334.741 141.874 334.4C142.472 334.048 143.16 333.872 143.938 333.872C144.706 333.872 145.368 334.048 145.922 334.4C146.488 334.741 146.92 335.195 147.218 335.76C147.517 336.325 147.666 336.933 147.666 337.584C147.666 337.701 147.661 337.819 147.65 337.936C147.65 338.053 147.65 338.187 147.65 338.336H141.33C141.362 338.944 141.501 339.451 141.746 339.856C142.002 340.251 142.317 340.549 142.69 340.752C143.074 340.955 143.48 341.056 143.906 341.056C144.461 341.056 144.925 340.928 145.298 340.672C145.672 340.416 145.944 340.069 146.114 339.632H147.442C147.229 340.368 146.818 340.981 146.21 341.472C145.613 341.952 144.845 342.192 143.906 342.192ZM143.906 335.008C143.266 335.008 142.696 335.205 142.194 335.6C141.704 335.984 141.421 336.549 141.346 337.296H146.338C146.306 336.581 146.061 336.021 145.602 335.616C145.144 335.211 144.578 335.008 143.906 335.008ZM149.448 345.52V334.064H150.664L150.792 335.376C151.048 334.992 151.41 334.645 151.88 334.336C152.36 334.027 152.968 333.872 153.704 333.872C154.493 333.872 155.181 334.053 155.768 334.416C156.354 334.779 156.808 335.275 157.128 335.904C157.458 336.533 157.624 337.248 157.624 338.048C157.624 338.848 157.458 339.563 157.128 340.192C156.808 340.811 156.349 341.301 155.752 341.664C155.165 342.016 154.477 342.192 153.688 342.192C153.037 342.192 152.456 342.059 151.944 341.792C151.442 341.525 151.058 341.152 150.792 340.672V345.52H149.448ZM153.544 341.024C154.077 341.024 154.546 340.901 154.952 340.656C155.357 340.4 155.677 340.048 155.912 339.6C156.146 339.152 156.264 338.629 156.264 338.032C156.264 337.435 156.146 336.912 155.912 336.464C155.677 336.016 155.357 335.669 154.952 335.424C154.546 335.168 154.077 335.04 153.544 335.04C153.01 335.04 152.541 335.168 152.136 335.424C151.73 335.669 151.41 336.016 151.176 336.464C150.941 336.912 150.824 337.435 150.824 338.032C150.824 338.629 150.941 339.152 151.176 339.6C151.41 340.048 151.73 340.4 152.136 340.656C152.541 340.901 153.01 341.024 153.544 341.024ZM162.135 342.192C161.473 342.192 160.924 342.08 160.487 341.856C160.049 341.632 159.724 341.333 159.511 340.96C159.297 340.587 159.191 340.181 159.191 339.744C159.191 338.933 159.5 338.309 160.119 337.872C160.737 337.435 161.58 337.216 162.647 337.216H164.791V337.12C164.791 336.427 164.609 335.904 164.247 335.552C163.884 335.189 163.399 335.008 162.791 335.008C162.268 335.008 161.815 335.141 161.431 335.408C161.057 335.664 160.823 336.043 160.727 336.544H159.351C159.404 335.968 159.596 335.483 159.927 335.088C160.268 334.693 160.689 334.395 161.191 334.192C161.692 333.979 162.225 333.872 162.791 333.872C163.9 333.872 164.732 334.171 165.287 334.768C165.852 335.355 166.135 336.139 166.135 337.12V342H164.935L164.855 340.576C164.631 341.024 164.3 341.408 163.863 341.728C163.436 342.037 162.86 342.192 162.135 342.192ZM162.343 341.056C162.855 341.056 163.292 340.923 163.655 340.656C164.028 340.389 164.311 340.043 164.503 339.616C164.695 339.189 164.791 338.741 164.791 338.272V338.256H162.759C161.969 338.256 161.409 338.395 161.079 338.672C160.759 338.939 160.599 339.275 160.599 339.68C160.599 340.096 160.748 340.432 161.047 340.688C161.356 340.933 161.788 341.056 162.343 341.056ZM168.781 345.52L170.749 341.232H170.285L167.133 334.064H168.589L171.213 340.24L173.997 334.064H175.389L170.189 345.52H168.781ZM176.807 342V334.064H178.023L178.119 335.216C178.375 334.789 178.716 334.459 179.143 334.224C179.57 333.989 180.05 333.872 180.583 333.872C181.212 333.872 181.751 334 182.199 334.256C182.658 334.512 183.01 334.901 183.255 335.424C183.532 334.944 183.911 334.565 184.391 334.288C184.882 334.011 185.41 333.872 185.975 333.872C186.924 333.872 187.682 334.16 188.247 334.736C188.812 335.301 189.095 336.176 189.095 337.36V342H187.767V337.504C187.767 336.683 187.602 336.064 187.271 335.648C186.94 335.232 186.466 335.024 185.847 335.024C185.207 335.024 184.674 335.275 184.247 335.776C183.831 336.267 183.623 336.971 183.623 337.888V342H182.279V337.504C182.279 336.683 182.114 336.064 181.783 335.648C181.452 335.232 180.978 335.024 180.359 335.024C179.73 335.024 179.202 335.275 178.775 335.776C178.359 336.267 178.151 336.971 178.151 337.888V342H176.807ZM194.688 342.192C193.93 342.192 193.258 342.021 192.672 341.68C192.085 341.328 191.621 340.843 191.28 340.224C190.949 339.605 190.784 338.875 190.784 338.032C190.784 337.2 190.949 336.475 191.28 335.856C191.61 335.227 192.069 334.741 192.656 334.4C193.253 334.048 193.941 333.872 194.72 333.872C195.488 333.872 196.149 334.048 196.704 334.4C197.269 334.741 197.701 335.195 198 335.76C198.298 336.325 198.448 336.933 198.448 337.584C198.448 337.701 198.442 337.819 198.432 337.936C198.432 338.053 198.432 338.187 198.432 338.336H192.112C192.144 338.944 192.282 339.451 192.528 339.856C192.784 340.251 193.098 340.549 193.472 340.752C193.856 340.955 194.261 341.056 194.688 341.056C195.242 341.056 195.706 340.928 196.08 340.672C196.453 340.416 196.725 340.069 196.896 339.632H198.224C198.01 340.368 197.6 340.981 196.992 341.472C196.394 341.952 195.626 342.192 194.688 342.192ZM194.688 335.008C194.048 335.008 193.477 335.205 192.976 335.6C192.485 335.984 192.202 336.549 192.128 337.296H197.12C197.088 336.581 196.842 336.021 196.384 335.616C195.925 335.211 195.36 335.008 194.688 335.008ZM200.229 342V334.064H201.445L201.525 335.488C201.781 334.987 202.149 334.592 202.629 334.304C203.109 334.016 203.653 333.872 204.261 333.872C205.2 333.872 205.946 334.16 206.501 334.736C207.066 335.301 207.349 336.176 207.349 337.36V342H206.005V337.504C206.005 335.851 205.322 335.024 203.957 335.024C203.274 335.024 202.704 335.275 202.245 335.776C201.797 336.267 201.573 336.971 201.573 337.888V342H200.229ZM212.521 342C211.796 342 211.225 341.824 210.809 341.472C210.393 341.12 210.185 340.485 210.185 339.568V335.2H208.809V334.064H210.185L210.361 332.16H211.529V334.064H213.865V335.2H211.529V339.568C211.529 340.069 211.631 340.411 211.833 340.592C212.036 340.763 212.393 340.848 212.905 340.848H213.737V342H212.521Z" fill="#668A99"/>
<defs>
<clipPath id="clip0_4790_66126">
<rect width="318.243" height="300" fill="white" transform="translate(0.878906)"/>
</clipPath>
</defs>
</svg>
