<svg width="146" height="80" viewBox="0 0 146 80" fill="none" xmlns="http://www.w3.org/2000/svg">
<g clip-path="url(#clip0_4027_59664)">
<path d="M0.898438 30.3203L109.083 45.8838L123.603 60.5457L0.898438 30.3203Z" fill="#407BFF"/>
<path opacity="0.6" d="M0.898438 30.3203L109.083 45.8838L123.603 60.5457L0.898438 30.3203Z" fill="white"/>
<path d="M0.898438 30.3203L109.083 45.8838L104.054 67.0463L0.898438 30.3203Z" fill="#407BFF"/>
<path opacity="0.2" d="M0.898438 30.3203L109.083 45.8838L104.054 67.0463L0.898438 30.3203Z" fill="black"/>
<path d="M101.825 5.78888L108.089 35.2076C108.421 36.8209 107.424 38.3867 105.811 38.7189L49.7731 50.6762C48.1598 51.0083 46.594 50.0119 46.2619 48.3986L39.9985 18.9799C39.8087 18.1258 39.9985 17.3191 40.473 16.6548C40.9001 16.0854 41.5169 15.6109 42.2761 15.4686L98.3141 3.5113C99.0732 3.36895 99.8324 3.5113 100.449 3.8909C101.114 4.27049 101.636 4.93479 101.825 5.78888Z" fill="#407BFF"/>
<path opacity="0.4" d="M101.825 5.78888L108.089 35.2076C108.421 36.8209 107.424 38.3867 105.811 38.7189L49.7731 50.6762C48.1598 51.0083 46.594 50.0119 46.2619 48.3986L39.9985 18.9799C39.8087 18.1258 39.9985 17.3191 40.473 16.6548C40.9001 16.0854 41.5169 15.6109 42.2761 15.4686L98.3141 3.5113C99.0732 3.36895 99.8324 3.5113 100.449 3.8909C101.114 4.27049 101.636 4.93479 101.825 5.78888Z" fill="black"/>
<path d="M100.449 3.84346L81.7063 26.8091C78.1476 31.1744 71.9792 32.503 66.9495 29.9407L40.4727 16.6548C40.8997 16.0855 41.5165 15.611 42.2757 15.4686L98.3137 3.51131C99.0729 3.32151 99.8321 3.51131 100.449 3.84346Z" fill="#407BFF"/>
<path d="M0.898438 30.3203L90.1037 51.5303L104.054 67.0463L0.898438 30.3203Z" fill="#407BFF"/>
<path opacity="0.6" d="M0.898438 30.3203L90.1037 51.5303L104.054 67.0463L0.898438 30.3203Z" fill="white"/>
<path d="M33.4469 50.7556L33.207 51.165L43.1144 56.9696L43.3542 56.5602L33.4469 50.7556Z" fill="#407BFF"/>
<path d="M47.7633 59.1237L47.5234 59.5331L51.0852 61.6198L51.325 61.2104L47.7633 59.1237Z" fill="#407BFF"/>
<path d="M0.898438 30.3203L90.1037 51.5303L72.7846 72.4081L0.898438 30.3203Z" fill="#407BFF"/>
<path d="M120.232 80C120.137 80 119.995 80 119.9 79.9526L105.38 74.2112C104.906 74.0214 104.669 73.452 104.858 72.9775C105.048 72.503 105.618 72.2657 106.092 72.4555L120.612 78.1969C121.086 78.3867 121.323 78.9561 121.134 79.4306C120.991 79.7628 120.612 80 120.232 80Z" fill="#407BFF"/>
<path opacity="0.3" d="M120.232 80C120.137 80 119.995 80 119.9 79.9526L105.38 74.2112C104.906 74.0214 104.669 73.452 104.858 72.9775C105.048 72.503 105.618 72.2657 106.092 72.4555L120.612 78.1969C121.086 78.3867 121.323 78.9561 121.134 79.4306C120.991 79.7628 120.612 80 120.232 80Z" fill="black"/>
<path d="M119.378 71.6489C119.283 71.6489 119.14 71.6489 119.046 71.6014L111.216 68.5172C110.742 68.3274 110.505 67.758 110.694 67.2835C110.884 66.809 111.454 66.5718 111.928 66.7616L119.757 69.8458C120.232 70.0356 120.469 70.605 120.279 71.0795C120.089 71.4116 119.757 71.6489 119.378 71.6489Z" fill="#407BFF"/>
<path opacity="0.5" d="M119.378 71.6489C119.283 71.6489 119.14 71.6489 119.046 71.6014L111.216 68.5172C110.742 68.3274 110.505 67.758 110.694 67.2835C110.884 66.809 111.454 66.5718 111.928 66.7616L119.757 69.8458C120.232 70.0356 120.469 70.605 120.279 71.0795C120.089 71.4116 119.757 71.6489 119.378 71.6489Z" fill="white"/>
<path d="M103.056 79.8577C102.961 79.8577 102.819 79.8577 102.724 79.8102L88.5367 74.2112C88.0622 74.0214 87.8249 73.452 88.0147 72.9775C88.2045 72.503 88.7739 72.2657 89.2484 72.4555L103.436 78.0546C103.91 78.2444 104.148 78.8138 103.958 79.2883C103.815 79.6204 103.436 79.8577 103.056 79.8577Z" fill="#407BFF"/>
<path opacity="0.3" d="M103.056 79.8577C102.961 79.8577 102.819 79.8577 102.724 79.8102L88.5367 74.2112C88.0622 74.0214 87.8249 73.452 88.0147 72.9775C88.2045 72.503 88.7739 72.2657 89.2484 72.4555L103.436 78.0546C103.91 78.2444 104.148 78.8138 103.958 79.2883C103.815 79.6204 103.436 79.8577 103.056 79.8577Z" fill="black"/>
<path d="M140.353 28.8494C140.116 28.8019 139.878 28.8019 139.641 28.8019C139.878 25.3381 138.55 23.1554 135.75 23.1554C133.71 23.1554 131.243 24.2942 128.68 26.2396C129.392 19.5492 127.067 15.2313 121.8 15.2313C117.577 15.2313 112.168 18.0783 106.854 22.6809C106.379 20.0712 104.813 18.5053 102.203 18.5053C97.6009 18.5053 91.0054 23.3452 85.7859 30.2254C84.6471 28.707 82.939 27.758 80.7088 27.6157C76.296 27.2835 70.8393 30.083 65.9995 34.6382C65.6199 33.879 64.9556 33.4045 64.0066 33.3096C61.5866 33.1198 58.2652 35.6346 56.3672 39.0036H61.9662H65.7622H80.3767H87.2094H93.3304H101.966H118.336H124.742H127.02H136.082H144.244C146.284 33.879 144.671 29.4187 140.353 28.8494Z" fill="#F0F0F0"/>
<path d="M68.9424 12.0996C71.3623 5.02966 69.4169 0 63.5331 0C59.8321 0 55.2769 1.99288 50.8166 5.21945C50.2947 3.36892 48.8712 2.27758 46.5936 2.27758C42.6079 2.27758 37.0563 5.6465 32.6909 10.4389C31.647 9.34757 30.1286 8.73072 28.1832 8.58838C24.3398 8.35113 19.6897 10.344 15.6565 13.5231C15.3244 13.0012 14.7075 12.669 13.8534 12.6216C11.6233 12.4792 8.63397 14.4721 7.16303 17.0344C7.06813 17.1768 6.97323 17.3665 6.92578 17.5089H11.5284H15.1346H27.851H34.1144H39.0017H46.4987H47.8748H66.475H70.1286C70.3184 15.2788 69.8914 13.4282 68.9424 12.0996Z" fill="#F0F0F0"/>
<path d="M69.1328 54.9466C70.319 51.4828 69.37 49.0629 66.4756 49.0629C64.6725 49.0629 62.4424 50.0119 60.2597 51.5777C60.0225 50.6761 59.3107 50.1542 58.2194 50.1542C56.2739 50.1542 53.5693 51.8149 51.4341 54.14C50.9121 53.618 50.2004 53.2859 49.204 53.2384C47.306 53.1435 45.0284 54.0925 43.083 55.6584C42.8932 55.4211 42.6085 55.2313 42.2289 55.2313C41.1375 55.1839 39.6666 56.1329 38.9548 57.3665C38.9074 57.4614 38.8599 57.5089 38.8125 57.6038H41.0426H42.8457H49.0616H52.0984H54.4709H58.1245H58.7888H67.8516H69.6547C69.7971 56.465 69.6073 55.5635 69.1328 54.9466Z" fill="#F0F0F0"/>
</g>
<defs>
<clipPath id="clip0_4027_59664">
<rect width="144.199" height="80" fill="white" transform="translate(0.898438)"/>
</clipPath>
</defs>
</svg>
