<?xml version="1.0" standalone="no"?>
<!DOCTYPE svg PUBLIC "-//W3C//DTD SVG 20010904//EN"
 "http://www.w3.org/TR/2001/REC-SVG-20010904/DTD/svg10.dtd">
<svg version="1.0" xmlns="http://www.w3.org/2000/svg"
 width="512.000000pt" height="512.000000pt" viewBox="0 0 512.000000 512.000000"
 preserveAspectRatio="xMidYMid meet">
<metadata>
Created by potrace 1.16, written by Peter Selinger 2001-2019
</metadata>
<g transform="translate(0.000000,512.000000) scale(0.100000,-0.100000)"
fill="#000000" stroke="none">
<path d="M1375 4093 c-121 -16 -227 -39 -330 -74 -518 -173 -895 -595 -1017
-1140 -20 -91 -23 -130 -23 -319 0 -239 9 -304 70 -488 176 -527 602 -904
1159 -1024 147 -32 456 -32 602 0 239 52 458 152 644 294 65 50 240 225 240
240 0 4 -71 8 -158 8 l-158 0 -36 48 c-19 26 -43 59 -53 74 l-17 28 273 2 274
3 42 75 c24 41 39 78 35 82 -4 4 -169 9 -366 10 l-359 3 -28 70 -28 70 423 3
422 2 29 110 c27 108 27 111 11 168 -21 75 -21 229 -1 302 9 30 18 75 20 100
l5 45 -15 -34 c-9 -18 -22 -56 -29 -85 -11 -44 -17 -51 -39 -54 -32 -4 -63
-41 -77 -91 -6 -20 -22 -101 -35 -181 -14 -80 -28 -155 -30 -167 -5 -22 -10
-23 -96 -23 l-90 0 6 43 c4 23 28 166 53 317 l47 275 79 3 79 3 -6 -37 -6 -37
32 30 c40 38 68 53 100 53 22 0 23 3 18 38 l-6 37 -463 3 c-365 2 -463 0 -466
-10 -3 -7 -7 -28 -10 -45 -5 -33 -5 -33 35 -33 l41 0 -6 -47 c-17 -119 -14
-113 -61 -113 -51 0 -45 13 -76 -169 -22 -132 -22 -134 -3 -148 12 -9 31 -12
52 -8 29 5 33 4 28 -12 -2 -10 -8 -39 -11 -64 -4 -25 -10 -51 -14 -58 -4 -6
-34 -16 -67 -22 -46 -9 -68 -8 -99 3 -52 17 -88 70 -82 118 6 41 68 394 92
527 l17 92 76 3 76 3 9 35 c4 19 13 52 18 72 l10 38 424 2 424 3 -33 80 -32
80 -357 -4 c-196 -2 -357 0 -357 4 0 4 18 41 41 81 l40 74 275 0 275 0 -21 38
c-12 22 -40 60 -62 85 l-40 47 -144 0 c-79 0 -144 4 -144 8 0 5 32 39 70 77
l71 68 -23 25 c-35 38 -171 137 -246 179 -210 117 -479 193 -689 193 -42 0
-73 4 -73 10 0 10 -91 11 -155 3z m-857 -1383 l4 -235 77 230 78 230 44 7 c24
3 86 7 137 7 89 1 92 0 91 -21 0 -13 -28 -189 -62 -393 l-63 -370 -87 -3 c-69
-2 -87 0 -87 11 0 12 58 402 75 502 3 17 -39 -91 -93 -240 l-99 -270 -61 -3
-62 -3 -1 88 c-1 48 -4 171 -8 273 l-6 185 -45 -270 -46 -270 -80 -3 -81 -3
48 286 c26 157 55 335 64 395 l17 110 122 -3 121 -2 3 -235z m1292 104 l32 -7
-6 -59 c-11 -91 -7 -88 -101 -88 -88 0 -115 -12 -115 -49 0 -23 23 -43 87 -75
73 -37 97 -74 101 -162 5 -100 -23 -155 -103 -198 -35 -18 -56 -21 -172 -21
-166 0 -167 0 -151 103 l12 74 30 -7 c117 -24 206 -12 214 28 5 26 -11 42 -83
82 -92 51 -110 81 -110 181 0 73 3 84 28 117 27 36 67 62 117 78 31 9 177 11
220 3z m-503 -25 c54 -26 81 -64 94 -131 9 -44 5 -89 -23 -278 l-34 -225 -78
-3 -79 -3 6 31 6 30 -37 -24 c-80 -52 -167 -56 -223 -9 -46 39 -62 79 -61 153
1 157 90 234 287 249 71 5 80 8 83 27 2 11 -6 28 -17 38 -18 16 -33 18 -113
13 -51 -3 -106 -9 -122 -13 l-29 -7 8 59 c4 32 11 66 15 74 13 23 85 38 184
39 72 1 98 -3 133 -20z m1197 0 c124 -31 187 -160 154 -314 l-13 -60 -167 -3
-168 -2 0 -26 c0 -35 26 -71 62 -83 44 -15 126 -14 184 4 75 23 74 24 55 -62
-15 -71 -18 -77 -46 -86 -57 -17 -206 -13 -262 6 -68 24 -127 83 -149 149 -23
72 -16 224 15 293 44 100 105 163 177 185 41 12 108 12 158 -1z"/>
<path d="M1100 2433 c-47 -24 -66 -63 -48 -100 10 -22 21 -29 52 -31 55 -5 99
41 107 113 4 29 2 30 -36 33 -24 1 -54 -5 -75 -15z"/>
</g>
</svg>
