<svg width="227" height="350" viewBox="0 0 227 350" fill="none" xmlns="http://www.w3.org/2000/svg">
<g clip-path="url(#clip0_11725_83291)">
<g opacity="0.5">
<path d="M181.159 212.988H45.6484V222.55H181.159V212.988Z" fill="#EBEBEB"/>
<path d="M181.157 212.988H122.234V222.55H181.157V212.988Z" fill="#E0E0E0"/>
<path d="M65.6717 222.55H45.6484V316.46H65.6717V222.55Z" fill="#EBEBEB"/>
<path d="M65.6717 232.251L45.6484 225.433V222.55H65.6717V232.251Z" fill="#E0E0E0"/>
<path d="M181.156 222.55H161.133V316.46H181.156V222.55Z" fill="#E0E0E0"/>
<path d="M142.258 222.55H122.234V316.46H142.258V222.55Z" fill="#EBEBEB"/>
<path d="M142.247 232.251L122.234 225.433V222.55H142.247V232.251Z" fill="#E0E0E0"/>
<path d="M104.57 222.55H84.5469V316.46H104.57V222.55Z" fill="#E0E0E0"/>
</g>
<g opacity="0.5">
<path d="M193.897 0H23.1094V145.426H193.897V0Z" fill="#EBEBEB"/>
<path d="M193.897 145.426H195.805L195.805 -0.000228882H193.897L193.897 145.426Z" fill="#E0E0E0"/>
<path d="M187.469 138.995V6.43164L29.5443 6.43164V138.995H187.469Z" fill="#F5F5F5"/>
</g>
<g opacity="0.5">
<path d="M106.594 118.864C116.241 86.7065 118.921 39.2745 139.437 45.8238C159.953 52.3732 133.081 122.498 133.081 122.498L106.594 118.864Z" fill="white"/>
<path d="M123.165 120.472C113.336 73.8652 115.823 11.9838 85.3163 13.4094C54.8097 14.8351 85.3163 122.498 85.3163 122.498L123.165 120.472Z" fill="white"/>
<path d="M144.721 115.241H77.9621C76.6009 115.197 75.2769 115.689 74.2747 116.611C73.2725 117.533 72.672 118.812 72.6026 120.172C71.2412 150.936 76.2792 182.343 85.6584 212.988H136.799C146.178 182.289 151.216 150.936 149.855 120.172C149.802 118.846 149.238 117.591 148.281 116.672C147.324 115.753 146.048 115.24 144.721 115.241Z" fill="#EBEBEB"/>
</g>
<path d="M113.5 350C175.749 350 226.212 346.693 226.212 342.614C226.212 338.536 175.749 335.229 113.5 335.229C51.2516 335.229 0.789062 338.536 0.789062 342.614C0.789062 346.693 51.2516 350 113.5 350Z" fill="#F5F5F5"/>
<path d="M44.6641 264.58H182.34V335.69C182.34 337.529 181.609 339.293 180.309 340.594C179.008 341.895 177.244 342.625 175.405 342.625H51.5993C49.76 342.625 47.996 341.895 46.6954 340.594C45.3947 339.293 44.6641 337.529 44.6641 335.69V264.58Z" fill="#065373"/>
<path d="M44.6585 264.58H142.074L130.09 249.241C128.771 247.558 125.513 246.196 122.801 246.196H35.2042C32.4923 246.196 31.3561 247.558 32.6745 249.241L44.6585 264.58Z" fill="#0A607A"/>
<path opacity="0.2" d="M44.6585 264.58H142.074L130.09 249.241C128.771 247.558 125.513 246.196 122.801 246.196H35.2042C32.4923 246.196 31.3561 247.558 32.6745 249.241L44.6585 264.58Z" fill="#0A607A"/>
<path d="M182.337 264.58H84.9219L96.9058 254.579C98.2243 253.507 101.483 252.596 104.195 252.596H191.802C194.514 252.596 195.639 253.485 194.332 254.579L182.337 264.58Z" fill="#065373"/>
<path opacity="0.2" d="M84.9219 264.58H182.337V335.69C182.337 337.529 181.606 339.293 180.306 340.594C179.005 341.895 177.241 342.625 175.402 342.625H91.9C90.0607 342.625 88.2967 341.895 86.996 340.594C85.6954 339.293 84.9648 337.529 84.9648 335.69V264.58H84.9219Z" fill="white"/>
<path opacity="0.5" d="M56.75 264.58V313.33L60.1158 310.672L62.4847 313.33L64.5535 310.372L66.6544 313.33L69.5915 311.1L72.8286 313.33V264.58H56.75Z" fill="white"/>
<path d="M78.5564 158.235L61.2344 143.7" stroke="#0F7A93" stroke-miterlimit="10"/>
<path d="M87.516 165.76L82.2422 161.333" stroke="#0F7A93" stroke-miterlimit="10"/>
<path d="M139.389 196.159L196.49 124.781L120.459 60.9702L70.0796 118.778L62.5762 133.238C62.204 133.648 61.9203 134.13 61.743 134.654C61.5658 135.179 61.4987 135.734 61.546 136.285C61.5932 136.837 61.7539 137.373 62.0179 137.859C62.2819 138.346 62.6435 138.772 63.08 139.112L131.682 196.717C132.8 197.613 134.216 198.054 135.645 197.95C137.074 197.847 138.412 197.207 139.389 196.159Z" fill="#065373"/>
<path opacity="0.5" d="M100.206 143.55L91.9844 156.788L95.2966 157.496L96.4221 160.572L98.6195 160.701L99.6378 163.316L102.328 164.11L104.408 167.39L112.619 154.151L100.206 143.55Z" fill="white"/>
<path opacity="0.1" d="M193.998 122.712L142.782 179.845L70.0312 118.778L120.454 60.9702L193.998 122.712Z" fill="#0F7A93"/>
<path d="M193.997 122.712L142.781 179.845L163.984 181.421L214.406 123.613L193.997 122.712Z" fill="#035E7A"/>
<path opacity="0.3" d="M193.997 122.712L142.781 179.845L163.984 181.421L214.406 123.613L193.997 122.712Z" fill="#065373"/>
<path d="M100.052 60.0698L48.8359 117.203L70.0383 118.778L120.461 60.9702L100.052 60.0698Z" fill="#035E7A"/>
<path opacity="0.4" d="M99.9502 60.0698L48.7344 117.203L69.9368 118.778L120.359 60.9702L99.9502 60.0698Z" fill="#065373"/>
<path opacity="0.1" d="M178.229 140.313L193.997 122.712L120.453 60.9702L111.031 83.6411L178.229 140.313Z" fill="black"/>
<path opacity="0.2" d="M70.0312 118.778L120.454 60.9702L111.032 83.6411L75.5302 123.388L70.0312 118.778Z" fill="black"/>
</g>
<defs>
<clipPath id="clip0_11725_83291">
<rect width="225.423" height="350" fill="white" transform="translate(0.789062)"/>
</clipPath>
</defs>
</svg>
