<svg width="155" height="120" viewBox="0 0 155 120" fill="none" xmlns="http://www.w3.org/2000/svg">
<circle cx="75.6474" cy="70.959" r="2.76463" fill="#9F00EA"/>
<circle cx="81.1774" cy="43.3126" r="6.45079" fill="#EAA900"/>
<rect x="48.9219" y="96.104" width="18.4308" height="9.21542" transform="rotate(-45.5869 48.9219 96.104)" fill="#EAA900"/>
<rect x="137.148" y="31.3325" width="5.52925" height="9.21542" transform="rotate(21.9912 137.148 31.3325)" fill="#EA0000"/>
<rect x="73.6328" y="23.0674" width="22.117" height="7.37233" transform="rotate(-116.768 73.6328 23.0674)" fill="#EA0000"/>
<path d="M0.997031 47.1044C0.997031 47.1044 12.7822 41.2346 15.4557 44.3112C16.9245 46.0014 18.0337 48.0486 16.7182 49.7119C15.7042 50.994 14.2403 51.1575 12.5249 50.8562C8.89245 50.2183 8.94755 45.1739 10.4057 42.0498C12.4189 37.7364 23.1059 40.2824 23.1059 40.2824" stroke="#05EA00" stroke-width="2.2117"/>
<path d="M41.6982 82.9389C41.6982 82.9389 40.801 77.6091 43.3759 76.5468C45.539 75.6543 47.4144 79.601 49.1918 78.1702C50.9922 76.7208 46.4978 74.4247 47.9615 72.6912C49.5019 70.8668 54.4485 72.6912 54.4485 72.6912" stroke="#005EEA" stroke-width="2.2117"/>
<path d="M35.6583 15.6664C35.6583 20.247 43.0002 23.9603 37.8912 23.9603C32.7823 23.9603 28.6406 20.247 28.6406 15.6664C28.6406 11.0859 32.7823 7.37256 37.8912 7.37256C43.0002 7.37256 35.6583 11.0859 35.6583 15.6664Z" fill="#9F00EA"/>
<path d="M143.361 69.5663C146.399 69.8721 149.352 65.25 149.011 68.6389C148.67 72.0277 145.93 74.527 142.892 74.2212C139.854 73.9154 137.667 70.9203 138.008 67.5314C138.349 64.1426 140.322 69.2604 143.361 69.5663Z" fill="#005EEA"/>
<path d="M99.2701 77.4092L101.339 83.7769H108.034L102.618 87.7123L104.687 94.08L99.2701 90.1446L93.8534 94.08L95.9224 87.7123L90.5057 83.7769H97.2011L99.2701 77.4092Z" fill="#05EA00"/>
<path d="M48.9199 46.0771L50.1613 49.8978H54.1785L50.9285 52.259L52.1699 56.0797L48.9199 53.7184L45.6699 56.0797L46.9113 52.259L43.6612 49.8978H47.6785L48.9199 46.0771Z" fill="#EAD300"/>
<path d="M99.9276 22.6983L100.845 14.7818L107.244 18.8382L107.973 12.1971L113.81 16.2176L115.627 9.038" stroke="#005EEA" stroke-width="1.84308"/>
<rect x="37" y="37" width="82" height="82" rx="41" fill="#F0FFFC"/>
<path d="M77.987 51.334C63.2936 51.334 51.3203 63.3073 51.3203 78.0006C51.3203 92.694 63.2936 104.667 77.987 104.667C92.6803 104.667 104.654 92.694 104.654 78.0006C104.654 63.3073 92.6803 51.334 77.987 51.334ZM90.7336 71.8673L75.6136 86.9873C75.2403 87.3606 74.7336 87.574 74.2003 87.574C73.667 87.574 73.1603 87.3606 72.787 86.9873L65.2403 79.4406C64.467 78.6673 64.467 77.3873 65.2403 76.614C66.0136 75.8406 67.2936 75.8406 68.067 76.614L74.2003 82.7473L87.907 69.0407C88.6803 68.2673 89.9603 68.2673 90.7336 69.0407C91.507 69.814 91.507 71.0673 90.7336 71.8673Z" fill="#029274"/>
<rect x="37" y="37" width="82" height="82" rx="41" stroke="#029274" stroke-width="2"/>
</svg>
